<svg width="24" height="25" viewBox="0 0 24 25" fill="none" xmlns="http://www.w3.org/2000/svg">
<path d="M18.0511 9.49975C19.6774 9.49975 21 8.15431 21 6.49988C21 4.84544 19.6774 3.5 18.0511 3.5C16.4248 3.5 15.1023 4.84544 15.1023 6.49988C15.1023 8.15431 16.4248 9.49975 18.0511 9.49975ZM19.4283 11.2254C19.3823 11.0325 19.2636 10.8658 19.0978 10.7612C18.932 10.6566 18.7324 10.6227 18.5421 10.6667C18.3518 10.7122 18.187 10.8327 18.084 11.0017C17.981 11.1708 17.9482 11.3745 17.9929 11.5682L18.7721 14.9348C18.8393 15.1764 18.85 15.4306 18.8033 15.6771C18.7566 15.9237 18.6537 16.1556 18.503 16.3545C18.352 16.5561 18.1569 16.7193 17.9333 16.8312C17.7097 16.9431 17.4636 17.0007 17.2144 16.9994H7.09238C6.59845 16.9994 6.13842 16.7767 5.83027 16.3882C5.68152 16.2037 5.57525 15.9876 5.51925 15.7558C5.46325 15.524 5.45894 15.2825 5.50663 15.0488L7.05036 9.21626C7.5959 6.73387 9.73531 5.00069 12.2522 5.00069C12.5692 5.00069 12.8854 5.02919 13.1921 5.08618C13.3846 5.12169 13.5831 5.07795 13.7439 4.96459C13.9047 4.85123 14.0146 4.67753 14.0495 4.48171C14.0844 4.28589 14.0414 4.08398 13.93 3.92041C13.8185 3.75684 13.6478 3.645 13.4553 3.6095C13.058 3.53645 12.6551 3.49981 12.2514 3.5C9.03938 3.5 6.30872 5.71616 5.61869 8.85778L4.07495 14.6895C3.97324 15.1478 3.97507 15.6235 4.08029 16.0809C4.18552 16.5383 4.39139 16.9654 4.68242 17.3302C4.97215 17.6966 5.33919 17.992 5.75636 18.1945C6.17353 18.397 6.63015 18.5015 7.09238 18.5001H8.54175C8.88456 20.2093 10.373 21.5 12.1534 21.5C13.9338 21.5 15.4222 20.2093 15.765 18.5001H17.2136C18.1868 18.5001 19.084 18.0501 19.6737 17.2657C19.9619 16.8876 20.1594 16.4464 20.2507 15.9771C20.3419 15.5077 20.3243 15.0232 20.1994 14.562L19.4283 11.2254ZM12.1534 19.9993C11.6975 19.9978 11.2532 19.8529 10.8815 19.5843C10.5098 19.3158 10.2289 18.9368 10.0774 18.4994H14.2287C14.0771 18.9368 13.7962 19.3158 13.4245 19.5843C13.0528 19.8529 12.6093 19.9978 12.1534 19.9993Z" fill="#474D66"/>
<circle cx="18" cy="6.5" r="3" fill="#D32F2F"/>
</svg>
