<svg width="24" height="25" viewBox="0 0 24 25" fill="none" xmlns="http://www.w3.org/2000/svg">
<path d="M12 3.5C10.22 3.5 8.47991 4.02784 6.99987 5.01677C5.51983 6.00571 4.36628 7.41131 3.68509 9.05585C3.0039 10.7004 2.82567 12.51 3.17294 14.2558C3.5202 16.0016 4.37737 17.6053 5.63604 18.864C6.89471 20.1226 8.49836 20.9798 10.2442 21.3271C11.99 21.6743 13.7996 21.4961 15.4442 20.8149C17.0887 20.1337 18.4943 18.9802 19.4832 17.5001C20.4722 16.0201 21 14.28 21 12.5C20.9974 10.1138 20.0484 7.82616 18.3611 6.13889C16.6738 4.45162 14.3862 3.50258 12 3.5ZM18.4853 8.75H16.0695C15.5287 7.49674 14.8167 6.32456 13.9538 5.267C15.8636 5.7867 17.4917 7.0381 18.4853 8.75ZM15.375 12.5C15.3688 13.2636 15.2485 14.022 15.018 14.75H8.982C8.75149 14.022 8.63116 13.2636 8.625 12.5C8.63116 11.7364 8.75149 10.978 8.982 10.25H15.018C15.2485 10.978 15.3688 11.7364 15.375 12.5ZM9.5835 16.25H14.4165C13.7799 17.5068 12.9661 18.6656 12 19.691C11.0335 18.6659 10.2197 17.507 9.5835 16.25ZM9.5835 8.75C10.2201 7.4932 11.0339 6.33437 12 5.309C12.9665 6.33408 13.7803 7.49297 14.4165 8.75H9.5835ZM10.05 5.267C9.18575 6.32434 8.47244 7.49652 7.9305 8.75H5.51475C6.50914 7.03732 8.13875 5.78582 10.05 5.267ZM4.84575 10.25H7.425C7.23057 10.9844 7.12977 11.7404 7.125 12.5C7.12977 13.2596 7.23057 14.0156 7.425 14.75H4.84575C4.38476 13.2854 4.38476 11.7146 4.84575 10.25ZM5.51475 16.25H7.9305C8.47244 17.5035 9.18575 18.6757 10.05 19.733C8.13875 19.2142 6.50914 17.9627 5.51475 16.25ZM13.9538 19.733C14.8167 18.6754 15.5287 17.5033 16.0695 16.25H18.4853C17.4917 17.9619 15.8636 19.2133 13.9538 19.733ZM19.1542 14.75H16.575C16.7694 14.0156 16.8702 13.2596 16.875 12.5C16.8702 11.7404 16.7694 10.9844 16.575 10.25H19.1528C19.6137 11.7146 19.6137 13.2854 19.1528 14.75H19.1542Z" fill="#474D66"/>
</svg>
