<svg width="755" height="754" viewBox="0 0 755 754" fill="none" xmlns="http://www.w3.org/2000/svg">
<g clip-path="url(#clip0_265_4599)">
<path d="M547.18 542.399L491.283 554.291C487.056 555.19 484.358 559.346 485.257 563.573L510.038 680.057C510.937 684.285 515.093 686.983 519.321 686.083L575.218 674.192C579.445 673.293 582.143 669.137 581.244 664.909L556.463 548.425C555.564 544.198 551.408 541.5 547.18 542.399Z" stroke="#263238" stroke-width="0.895361" stroke-linecap="round" stroke-linejoin="round"/>
<path d="M530.207 556.869L553.564 551.908L577.192 662.947L512.866 676.638L489.238 565.584L523.165 558.377" stroke="#263238" stroke-width="0.895361" stroke-linecap="round" stroke-linejoin="round"/>
<path d="M642.007 522.218L586.11 534.11C581.882 535.009 579.184 539.165 580.083 543.393L604.864 659.877C605.764 664.104 609.92 666.802 614.147 665.903L670.044 654.011C674.271 653.112 676.969 648.956 676.07 644.728L651.289 528.244C650.39 524.017 646.234 521.319 642.007 522.218Z" stroke="#263238" stroke-width="0.895361" stroke-linecap="round" stroke-linejoin="round"/>
<path d="M647.819 647.928L607.695 656.462L584.082 545.424L648.392 531.732L672.02 642.786L654.378 646.541" stroke="#263238" stroke-width="0.895361" stroke-linecap="round" stroke-linejoin="round"/>
<path d="M605.933 519.79L599.721 499.072L594.308 504.817C584.054 498.559 571.645 496.388 559.853 498.906C537.884 503.58 522.157 523.243 522.443 545.68C522.473 547.338 523.831 548.68 525.489 548.65C525.685 548.65 525.896 548.62 526.077 548.59C527.449 548.303 528.475 547.067 528.46 545.604C528.203 526.047 541.925 508.888 561.09 504.817C571.132 502.676 581.28 504.289 590.071 509.325L584.884 514.829L605.933 519.805V519.79Z" fill="#263238"/>
<path d="M553.352 691.309L559.564 712.027L564.977 706.282C575.231 712.539 587.64 714.711 599.432 712.193C621.401 707.518 637.128 687.856 636.842 665.419C636.812 663.76 635.454 662.418 633.796 662.448C633.6 662.448 633.389 662.478 633.208 662.509C631.836 662.795 630.81 664.032 630.825 665.494C631.082 685.051 617.36 702.211 598.195 706.282C588.153 708.423 578.005 706.809 569.214 701.773L574.401 696.27L553.352 691.294V691.309Z" fill="#263238"/>
<path d="M510.709 573.464L497.818 576.207L500.561 589.097L513.451 586.355L510.709 573.464Z" stroke="#263238" stroke-width="0.895361" stroke-linecap="round" stroke-linejoin="round"/>
<path d="M530.045 569.361L517.154 572.103L519.897 584.993L532.787 582.251L530.045 569.361Z" stroke="#263238" stroke-width="0.895361" stroke-linecap="round" stroke-linejoin="round"/>
<path d="M549.392 565.246L536.502 567.988L539.244 580.878L552.134 578.136L549.392 565.246Z" stroke="#263238" stroke-width="0.895361" stroke-linecap="round" stroke-linejoin="round"/>
<path d="M515.058 593.957L502.168 596.699L504.91 609.589L517.8 606.847L515.058 593.957Z" stroke="#263238" stroke-width="0.895361" stroke-linecap="round" stroke-linejoin="round"/>
<path d="M534.406 589.841L521.516 592.583L524.258 605.473L537.148 602.731L534.406 589.841Z" stroke="#263238" stroke-width="0.895361" stroke-linecap="round" stroke-linejoin="round"/>
<path d="M553.754 585.711L540.863 588.454L543.606 601.344L556.496 598.602L553.754 585.711Z" stroke="#263238" stroke-width="0.895361" stroke-linecap="round" stroke-linejoin="round"/>
<path d="M519.418 614.433L506.527 617.175L509.27 630.066L522.16 627.323L519.418 614.433Z" stroke="#263238" stroke-width="0.895361" stroke-linecap="round" stroke-linejoin="round"/>
<path d="M538.765 610.304L525.875 613.046L528.617 625.936L541.508 623.194L538.765 610.304Z" stroke="#263238" stroke-width="0.895361" stroke-linecap="round" stroke-linejoin="round"/>
<path d="M558.115 606.202L545.225 608.944L547.967 621.835L560.857 619.092L558.115 606.202Z" stroke="#263238" stroke-width="0.895361" stroke-linecap="round" stroke-linejoin="round"/>
<path d="M605.914 553.205L593.023 555.947L595.766 568.837L608.656 566.095L605.914 553.205Z" stroke="#263238" stroke-width="0.895361" stroke-linecap="round" stroke-linejoin="round"/>
<path d="M625.263 549.102L612.373 551.845L615.115 564.735L628.006 561.993L625.263 549.102Z" stroke="#263238" stroke-width="0.895361" stroke-linecap="round" stroke-linejoin="round"/>
<path d="M644.611 544.987L631.721 547.729L634.463 560.62L647.353 557.877L644.611 544.987Z" stroke="#263238" stroke-width="0.895361" stroke-linecap="round" stroke-linejoin="round"/>
<path d="M610.281 573.685L597.391 576.427L600.133 589.317L613.023 586.575L610.281 573.685Z" stroke="#263238" stroke-width="0.895361" stroke-linecap="round" stroke-linejoin="round"/>
<path d="M629.615 569.585L616.725 572.327L619.467 585.217L632.357 582.475L629.615 569.585Z" stroke="#263238" stroke-width="0.895361" stroke-linecap="round" stroke-linejoin="round"/>
<path d="M648.945 565.47L636.055 568.212L638.797 581.102L651.687 578.36L648.945 565.47Z" stroke="#263238" stroke-width="0.895361" stroke-linecap="round" stroke-linejoin="round"/>
<path d="M614.611 594.179L601.721 596.921L604.463 609.811L617.353 607.069L614.611 594.179Z" stroke="#263238" stroke-width="0.895361" stroke-linecap="round" stroke-linejoin="round"/>
<path d="M633.961 590.078L621.07 592.82L623.813 605.711L636.703 602.968L633.961 590.078Z" stroke="#263238" stroke-width="0.895361" stroke-linecap="round" stroke-linejoin="round"/>
<path d="M653.308 585.948L640.418 588.69L643.16 601.58L656.05 598.838L653.308 585.948Z" stroke="#263238" stroke-width="0.895361" stroke-linecap="round" stroke-linejoin="round"/>
<path d="M673.094 325.922L682.187 313.618L676.638 312.985C675.839 304.511 671.798 296.579 665.359 290.955C653.387 280.491 635.579 279.918 622.988 289.613C622.053 290.337 621.888 291.664 622.596 292.599C622.687 292.719 622.777 292.81 622.883 292.9C623.637 293.549 624.768 293.609 625.582 292.976C636.559 284.532 652.105 285.029 662.539 294.152C668.013 298.932 671.406 305.37 672.28 312.487L666.957 311.884L673.079 325.922H673.094Z" fill="#263238"/>
<path d="M572.387 343.307L563.295 355.611L568.844 356.245C569.643 364.719 573.684 372.65 580.123 378.274C592.095 388.739 609.903 389.312 622.493 379.616C623.428 378.893 623.594 377.566 622.885 376.631C622.795 376.51 622.705 376.42 622.599 376.329C621.845 375.681 620.714 375.621 619.9 376.254C608.923 384.698 593.377 384.2 582.942 375.078C577.469 370.298 574.076 363.859 573.202 356.742L578.524 357.345L572.402 343.307H572.387Z" fill="#263238"/>
<path d="M563.038 291.285C569.642 282.193 580.363 276.282 592.471 276.282C612.556 276.282 628.841 292.567 628.841 312.652C628.841 332.736 612.556 349.021 592.471 349.021C572.386 349.021 556.102 332.736 556.102 312.652C556.102 308.656 556.75 304.826 557.926 301.222" stroke="#263238" stroke-width="0.895361" stroke-linecap="round" stroke-linejoin="round"/>
<path d="M613.675 333.851C625.382 322.144 625.382 303.164 613.675 291.458C601.969 279.751 582.989 279.751 571.282 291.458C559.576 303.164 559.576 322.144 571.282 333.851C582.989 345.557 601.969 345.557 613.675 333.851Z" stroke="#263238" stroke-width="0.895361" stroke-linecap="round" stroke-linejoin="round"/>
<path d="M592.742 338.301V333.189C589.198 333.023 586.545 331.877 584.765 329.751C582.986 327.64 582.036 324.383 581.9 319.98L589.802 318.789C589.832 320.583 589.998 322.016 590.269 323.116C590.54 324.217 590.948 325.016 591.475 325.484C592.003 325.966 592.651 326.208 593.405 326.208C594.37 326.208 594.989 325.876 595.29 325.227C595.577 324.579 595.727 323.885 595.727 323.162C595.727 321.443 595.32 319.995 594.521 318.804C593.707 317.613 592.606 316.422 591.189 315.215L587.525 312.064C586.499 311.129 585.549 310.179 584.72 309.199C583.876 308.219 583.197 307.088 582.684 305.791C582.172 304.509 581.915 302.956 581.915 301.177C581.915 297.905 582.85 295.342 584.735 293.487C586.605 291.632 589.123 290.577 592.29 290.336V285.435H594.913V290.29C596.904 290.396 598.502 290.848 599.708 291.663C600.914 292.477 601.819 293.472 602.422 294.648C603.025 295.839 603.433 297.091 603.659 298.418C603.885 299.745 604.006 300.966 604.051 302.112L596.059 303.092C596.029 301.856 595.954 300.77 595.833 299.835C595.712 298.9 595.471 298.192 595.109 297.694C594.747 297.196 594.174 296.97 593.375 297C592.516 297 591.882 297.362 591.46 298.086C591.053 298.81 590.842 299.534 590.842 300.257C590.842 301.916 591.264 303.243 592.109 304.253C592.953 305.263 593.873 306.228 594.868 307.118L598.381 310.164C599.542 311.235 600.628 312.365 601.608 313.572C602.588 314.778 603.372 316.12 603.96 317.598C604.548 319.075 604.835 320.779 604.835 322.709C604.835 324.534 604.458 326.208 603.704 327.715C602.95 329.223 601.864 330.46 600.447 331.41C599.03 332.36 597.356 332.933 595.396 333.144V338.301H592.757H592.742Z" stroke="#263238" stroke-width="0.895361" stroke-miterlimit="10"/>
<path d="M687.722 365.194C692.288 345.634 680.133 326.075 660.572 321.509C641.012 316.943 621.453 329.098 616.887 348.658C612.321 368.219 624.476 387.777 644.036 392.344C663.597 396.91 683.155 384.755 687.722 365.194Z" stroke="#263238" stroke-width="0.895361" stroke-linecap="round" stroke-linejoin="round"/>
<path d="M680.001 368.547C675.478 379.344 664.787 386.943 652.347 386.943C635.791 386.943 622.371 373.523 622.371 356.967C622.371 340.411 635.791 326.991 652.347 326.991C668.904 326.991 682.324 340.411 682.324 356.967" stroke="#263238" stroke-width="0.895361" stroke-linecap="round" stroke-linejoin="round"/>
<path d="M652.603 382.617V377.505C649.06 377.339 646.406 376.194 644.627 374.067C642.847 371.956 641.897 368.699 641.762 364.297L649.648 363.105C649.678 364.9 649.844 366.332 650.115 367.433C650.387 368.534 650.794 369.333 651.322 369.8C651.849 370.283 652.498 370.524 653.252 370.524C654.217 370.524 654.835 370.192 655.136 369.544C655.423 368.895 655.574 368.202 655.574 367.478C655.574 365.759 655.167 364.312 654.367 363.12C653.553 361.929 652.452 360.738 651.035 359.532L647.371 356.38C646.346 355.445 645.396 354.495 644.566 353.515C643.722 352.535 643.043 351.404 642.531 350.108C642.018 348.826 641.762 347.273 641.762 345.494C641.762 342.221 642.697 339.658 644.581 337.803C646.451 335.949 648.969 334.893 652.136 334.652V329.751H654.759V334.607C656.75 334.712 658.348 335.165 659.554 335.979C660.761 336.793 661.665 337.788 662.269 338.964C662.872 340.156 663.279 341.407 663.505 342.734C663.731 344.061 663.852 345.282 663.897 346.428L655.905 347.408C655.875 346.172 655.8 345.086 655.679 344.152C655.559 343.217 655.317 342.508 654.955 342.01C654.594 341.513 654.021 341.287 653.221 341.317C652.362 341.317 651.729 341.679 651.306 342.402C650.899 343.126 650.688 343.85 650.688 344.574C650.688 346.232 651.11 347.559 651.955 348.57C652.799 349.58 653.719 350.545 654.714 351.434L658.228 354.48C659.389 355.551 660.474 356.682 661.454 357.888C662.435 359.094 663.219 360.436 663.807 361.914C664.395 363.392 664.681 365.096 664.681 367.026C664.681 368.85 664.304 370.524 663.55 372.032C662.796 373.54 661.711 374.776 660.293 375.726C658.876 376.676 657.202 377.249 655.242 377.46V382.617H652.603Z" stroke="#263238" stroke-width="0.895361" stroke-miterlimit="10"/>
<path d="M174.39 125.832L145.891 106.441C142.891 104.391 142.107 100.304 144.157 97.2885L171.977 56.3954C174.028 53.3947 178.114 52.6106 181.13 54.6613L252.165 102.988C255.166 105.039 255.95 109.125 253.899 112.141L226.079 153.034C224.029 156.035 219.942 156.819 216.927 154.768L181.975 130.989" stroke="#263238" stroke-width="0.895361" stroke-linecap="round" stroke-linejoin="round"/>
<path d="M169.378 60.239L159.387 74.9248L241.306 130.66L251.298 115.974L169.378 60.239Z" fill="#263238" stroke="#263238" stroke-width="0.895361" stroke-linecap="round" stroke-linejoin="round"/>
<path d="M275.65 146.475C275.499 146.414 275.348 146.354 275.212 146.279C272.951 145.163 272.709 142.042 274.79 140.609C276.811 139.222 278.695 137.684 280.384 135.92C283.521 132.648 285.888 128.893 287.516 124.686C288.481 122.168 289.16 119.574 289.477 116.906C290.487 108.658 288.753 101.028 284.229 94.0464C283.837 93.4282 283.551 92.7949 283.551 92.056C283.536 90.6085 284.471 89.3117 285.858 88.8745C287.245 88.4372 288.753 88.9499 289.567 90.1561C290.758 91.9203 291.784 93.7599 292.673 95.69C295.056 100.847 296.277 106.275 296.383 111.96C296.428 114.267 296.262 116.559 295.885 118.836C295.885 118.911 295.885 119.001 295.885 119.092C295.704 119.997 295.523 120.901 295.342 121.806C295.312 121.912 295.267 122.002 295.237 122.108C294.905 123.239 294.618 124.385 294.257 125.515C293.261 128.501 291.919 131.321 290.246 133.99C287.185 138.86 283.264 142.886 278.499 146.098C277.957 146.46 277.338 146.656 276.675 146.656C276.569 146.656 276.479 146.656 276.373 146.656C276.132 146.61 275.891 146.565 275.65 146.52V146.475Z" fill="#263238"/>
<path d="M283.836 118.143C282.207 125.727 278.212 131.804 271.728 136.222C270.627 136.976 269.255 136.961 268.184 136.222C267.129 135.498 266.631 134.186 266.933 132.92C267.129 132.121 267.581 131.502 268.26 131.05C269.858 129.964 271.306 128.713 272.587 127.25C274.683 124.853 276.236 122.154 277.126 119.108C279.101 112.398 278.227 106.065 274.442 100.169C273.417 98.5858 273.854 96.6105 275.332 95.6907C276.764 94.7859 278.634 95.1931 279.584 96.6406C281.755 99.8976 283.218 103.456 283.926 107.301C284.484 110.302 284.545 113.302 284.122 116.318C284.047 116.906 283.941 117.479 283.836 118.143Z" fill="#263238"/>
<path d="M272.828 115.881C271.848 120.525 269.421 124.22 265.485 126.904C264.43 127.627 263.299 127.688 262.183 127.054C261.082 126.436 260.569 125.441 260.63 124.174C260.675 123.164 261.157 122.365 262.002 121.792C263.329 120.887 264.46 119.787 265.259 118.399C267.581 114.388 267.566 110.393 265.153 106.427C264.686 105.658 264.43 104.859 264.611 103.954C264.852 102.733 265.802 101.768 267.023 101.526C268.244 101.27 269.496 101.768 270.205 102.808C271.984 105.462 272.964 108.387 273.13 111.569C273.205 113.016 273.1 114.449 272.813 115.866L272.828 115.881Z" fill="#263238"/>
<path d="M34.252 308.39H49.6321L69.0835 371.765H123.306" stroke="#263238" stroke-width="1.79072" stroke-linecap="round" stroke-linejoin="round"/>
<path d="M54.3672 322.82H135.369L125.794 358.164H65.4198" stroke="#263238" stroke-width="1.79072" stroke-linecap="round" stroke-linejoin="round"/>
<path d="M81.8242 323.272L85.3074 357.199" stroke="#263238" stroke-width="1.79072" stroke-linecap="round" stroke-linejoin="round"/>
<path d="M107.473 323.272L103.99 357.199" stroke="#263238" stroke-width="1.79072" stroke-linecap="round" stroke-linejoin="round"/>
<path d="M122.235 388.26C126.774 388.26 130.453 384.581 130.453 380.043C130.453 375.504 126.774 371.825 122.235 371.825C117.697 371.825 114.018 375.504 114.018 380.043C114.018 384.581 117.697 388.26 122.235 388.26Z" stroke="#263238" stroke-width="1.79072" stroke-linecap="round" stroke-linejoin="round"/>
<path d="M72.1612 388.26C76.6998 388.26 80.379 384.581 80.379 380.043C80.379 375.504 76.6998 371.825 72.1612 371.825C67.6226 371.825 63.9434 375.504 63.9434 380.043C63.9434 384.581 67.6226 388.26 72.1612 388.26Z" stroke="#263238" stroke-width="1.79072" stroke-linecap="round" stroke-linejoin="round"/>
<path d="M60.0059 341.774H130.453" stroke="#263238" stroke-width="1.79072" stroke-linecap="round" stroke-linejoin="round"/>
<path d="M146.36 348.711C163.023 348.711 176.532 335.203 176.532 318.539C176.532 301.875 163.023 288.367 146.36 288.367C129.696 288.367 116.188 301.875 116.188 318.539C116.188 335.203 129.696 348.711 146.36 348.711Z" fill="#263238"/>
<path d="M137.748 316.412L143.403 326.319L163.216 306.506" stroke="white" stroke-width="2.68608" stroke-linecap="round" stroke-linejoin="round"/>
<path d="M283.448 187.518C283.448 187.518 272.969 189.901 272.486 201.345C272.004 212.79 269.621 298.089 273.436 391.984C277.251 485.878 285.831 591.685 287.263 601.682C288.696 611.694 296.793 612.161 299.658 613.594C302.523 615.026 346.371 618.359 372.095 618.359C397.819 618.359 439.768 613.594 445.015 612.161C450.263 610.729 452.645 600.717 454.078 593.569C455.51 586.422 455.027 576.41 455.027 576.41L462.175 421.04C462.175 421.04 465.04 315.234 465.04 279.482C465.04 243.731 465.522 205.13 463.607 197.5C461.707 189.87 452.645 184.638 452.645 184.638C452.645 184.638 447.398 181.306 439.783 179.873C432.153 178.441 423.106 180.356 423.106 180.356L317.3 180.838C317.3 180.838 315.4 178.456 309.202 179.406C303.005 180.356 291.093 181.306 287.278 183.221C283.463 185.121 283.463 187.503 283.463 187.503L283.448 187.518Z" fill="#757575" stroke="#263238" stroke-width="0.895361" stroke-linecap="round" stroke-linejoin="round"/>
<path d="M288.682 252.809L291.547 372.442C291.547 372.442 291.547 425.338 293.446 431.535C295.346 437.732 304.409 440.115 308.691 441.065C312.973 442.015 338.712 445.347 375.896 444.88C413.065 444.397 435.954 442.497 443.101 436.3C450.249 430.103 449.781 423.438 449.781 417.241C449.781 411.043 450.731 250.909 450.731 250.909L288.682 252.809Z" fill="#263238" stroke="#263238" stroke-width="0.895361" stroke-linecap="round" stroke-linejoin="round"/>
<path d="M438.817 295.225H301.074V401.981H438.817V295.225Z" fill="white" stroke="#263238" stroke-width="0.895361" stroke-linecap="round" stroke-linejoin="round"/>
<path d="M299.64 190.382L287.713 229.873C287.14 231.517 287.14 233.311 287.713 234.939C288.859 238.196 292.04 240.066 295.509 240.006C315.171 239.629 340.503 239.312 372.078 239.327C401.767 239.327 427.265 238.513 437.127 239.478C441.846 239.93 446.294 237.201 448.013 232.783L447.501 234.291C448.36 232.09 448.978 228.154 448.3 225.877C445.329 215.986 439.615 191.136 437.262 189.176C434.397 186.793 425.818 184.894 424.4 184.894C422.983 184.894 322.529 185.617 315.85 186.567C309.17 187.517 303.938 185.135 299.64 190.382Z" fill="#919191" stroke="#263238" stroke-width="0.895361" stroke-linecap="round" stroke-linejoin="round"/>
<path d="M409.236 416.111C409.236 416.111 413.202 427.676 414.529 430.647C415.856 433.617 420.47 434.944 422.46 434.944C424.451 434.944 437.991 432.969 439.966 430.978C441.942 428.988 442.274 422.052 441.625 418.749C440.962 415.447 440.63 415.447 437.659 415.447C434.689 415.447 409.236 416.111 409.236 416.111Z" fill="white" stroke="#263238" stroke-width="0.895361" stroke-linecap="round" stroke-linejoin="round"/>
<path d="M295.892 414.451C295.892 414.451 294.897 428.987 298.863 431.626C302.829 434.264 328.93 436.918 328.598 435.26C328.266 433.601 322.974 416.095 320.335 415.431C317.696 414.768 295.877 414.436 295.877 414.436L295.892 414.451Z" fill="white" stroke="#263238" stroke-width="0.895361" stroke-linecap="round" stroke-linejoin="round"/>
<path d="M331.252 417.42C331.252 417.42 336.213 432.288 339.515 434.595C342.817 436.902 345.456 437.234 347.778 437.234C350.1 437.234 386.44 437.897 392.712 437.897C398.985 437.897 405.273 435.59 405.273 434.595C405.273 433.6 398.337 418.732 396.678 417.42C395.019 416.094 392.049 416.094 390.737 416.094C389.425 416.094 335.564 415.762 333.906 415.43C332.247 415.098 331.267 415.43 331.267 417.405L331.252 417.42Z" fill="white" stroke="#263238" stroke-width="0.895361" stroke-linecap="round" stroke-linejoin="round"/>
<path d="M358.678 435.923L378.174 416.758" stroke="#263238" stroke-width="0.895361" stroke-linecap="round" stroke-linejoin="round"/>
<path d="M390.721 421.388L385.111 426.68H393.706L390.721 421.388Z" fill="#263238" stroke="#263238" stroke-width="0.895361" stroke-linecap="round" stroke-linejoin="round"/>
<path d="M344.145 427.659L348.759 433.284L354.383 428.323L344.145 427.659Z" fill="#263238" stroke="#263238" stroke-width="0.895361" stroke-linecap="round" stroke-linejoin="round"/>
<path d="M435.006 422.382H420.139V425.006H435.006V422.382Z" fill="#263238"/>
<path d="M316.383 422.382H301.516V425.006H316.383V422.382Z" fill="#263238"/>
<path d="M306.474 451.786C306.474 451.786 305.509 451.635 304.167 451.635C301.996 451.62 298.859 451.936 297.231 453.776C294.592 456.746 296.236 469.02 297.894 471.282C300.684 475.112 330.6 477.555 333.254 476.907C335.892 476.243 337.551 475.58 337.883 471.946C338.215 468.312 339.21 459.053 336.224 456.415C333.254 453.776 306.489 451.786 306.489 451.786H306.474Z" stroke="#263238" stroke-width="0.895361" stroke-linecap="round" stroke-linejoin="round"/>
<path d="M308.074 455.284C308.074 455.284 307.244 455.179 306.114 455.164C304.274 455.149 301.605 455.39 300.218 456.777C297.971 459.024 299.373 468.282 300.776 470.001C303.143 472.896 328.551 474.736 330.797 474.238C333.044 473.741 334.446 473.243 334.718 470.499C335.004 467.754 335.833 460.773 333.315 458.783C330.797 456.792 308.074 455.284 308.074 455.284Z" fill="#263238" stroke="#263238" stroke-width="0.895361" stroke-linecap="round" stroke-linejoin="round"/>
<path d="M306.474 482.771C306.474 482.771 305.509 482.62 304.167 482.62C301.996 482.605 298.859 482.922 297.231 484.761C294.592 487.732 296.236 500.006 297.894 502.268C300.684 506.097 330.6 508.54 333.254 507.892C335.892 507.228 337.551 506.565 337.883 502.931C338.215 499.297 339.21 490.039 336.224 487.4C333.254 484.761 306.489 482.771 306.489 482.771H306.474Z" stroke="#263238" stroke-width="0.895361" stroke-linecap="round" stroke-linejoin="round"/>
<path d="M308.074 486.27C308.074 486.27 307.244 486.164 306.114 486.149C304.274 486.134 301.605 486.375 300.218 487.763C297.971 490.009 299.373 499.267 300.776 500.986C303.143 503.881 328.551 505.721 330.797 505.223C333.044 504.726 334.446 504.228 334.718 501.484C335.004 498.74 335.833 491.758 333.315 489.768C330.797 487.778 308.074 486.27 308.074 486.27Z" fill="#263238" stroke="#263238" stroke-width="0.895361" stroke-linecap="round" stroke-linejoin="round"/>
<path d="M308.402 512.899C308.402 512.899 307.437 512.748 306.095 512.748C303.924 512.733 300.787 513.05 299.159 514.889C296.52 517.86 298.164 530.134 299.822 532.395C302.612 536.225 332.528 538.668 335.181 538.02C337.82 537.356 339.479 536.693 339.811 533.059C340.142 529.425 341.138 520.167 338.152 517.528C335.181 514.889 308.417 512.899 308.417 512.899H308.402Z" stroke="#263238" stroke-width="0.895361" stroke-linecap="round" stroke-linejoin="round"/>
<path d="M310.002 516.397C310.002 516.397 309.172 516.292 308.041 516.277C306.202 516.261 303.533 516.503 302.146 517.89C299.899 520.137 301.301 529.395 302.703 531.114C305.071 534.009 330.478 535.849 332.725 535.351C334.972 534.853 336.374 534.356 336.645 531.611C336.932 528.867 337.761 521.886 335.243 519.895C332.725 517.905 310.002 516.397 310.002 516.397Z" fill="#263238" stroke="#263238" stroke-width="0.895361" stroke-linecap="round" stroke-linejoin="round"/>
<path d="M308.841 542.376C308.841 542.376 307.876 542.226 306.534 542.226C304.363 542.211 301.227 542.527 299.598 544.367C296.959 547.337 298.603 559.611 300.262 561.873C303.051 565.703 332.967 568.146 335.621 567.497C338.26 566.834 339.918 566.17 340.25 562.536C340.582 558.903 341.577 549.644 338.591 547.005C335.621 544.367 308.856 542.376 308.856 542.376H308.841Z" stroke="#263238" stroke-width="0.895361" stroke-linecap="round" stroke-linejoin="round"/>
<path d="M310.441 545.875C310.441 545.875 309.612 545.769 308.481 545.754C306.641 545.739 303.972 545.98 302.585 547.367C300.338 549.614 301.741 558.872 303.143 560.591C305.51 563.486 330.918 565.326 333.164 564.828C335.411 564.331 336.813 563.833 337.085 561.089C337.371 558.345 338.201 551.363 335.683 549.373C333.164 547.383 310.441 545.875 310.441 545.875Z" fill="#263238" stroke="#263238" stroke-width="0.895361" stroke-linecap="round" stroke-linejoin="round"/>
<path d="M430.297 451.786C430.297 451.786 431.262 451.635 432.604 451.635C434.776 451.62 437.912 451.936 439.541 453.776C442.179 456.746 440.536 469.02 438.877 471.282C436.088 475.112 406.172 477.555 403.518 476.907C400.879 476.243 399.22 475.58 398.889 471.946C398.557 468.312 397.562 459.053 400.547 456.415C403.518 453.776 430.282 451.786 430.282 451.786H430.297Z" stroke="#263238" stroke-width="0.895361" stroke-linecap="round" stroke-linejoin="round"/>
<path d="M428.699 455.284C428.699 455.284 429.514 455.179 430.66 455.164C432.499 455.149 435.168 455.39 436.555 456.777C438.802 459.024 437.4 468.282 435.997 470.001C433.63 472.896 408.223 474.736 405.976 474.238C403.729 473.741 402.327 473.243 402.055 470.499C401.769 467.754 400.94 460.773 403.458 458.783C405.976 456.792 428.699 455.284 428.699 455.284Z" fill="#263238" stroke="#263238" stroke-width="0.895361" stroke-linecap="round" stroke-linejoin="round"/>
<path d="M430.297 482.771C430.297 482.771 431.262 482.62 432.604 482.62C434.776 482.605 437.912 482.922 439.541 484.761C442.179 487.732 440.536 500.006 438.877 502.268C436.088 506.097 406.172 508.54 403.518 507.892C400.879 507.228 399.22 506.565 398.889 502.931C398.557 499.297 397.562 490.039 400.547 487.4C403.518 484.761 430.282 482.771 430.282 482.771H430.297Z" stroke="#263238" stroke-width="0.895361" stroke-linecap="round" stroke-linejoin="round"/>
<path d="M428.699 486.27C428.699 486.27 429.514 486.164 430.66 486.149C432.499 486.134 435.168 486.375 436.555 487.763C438.802 490.009 437.4 499.267 435.997 500.986C433.63 503.881 408.223 505.721 405.976 505.223C403.729 504.726 402.327 504.228 402.055 501.484C401.769 498.74 400.94 491.758 403.458 489.768C405.976 487.778 428.699 486.27 428.699 486.27Z" fill="#263238" stroke="#263238" stroke-width="0.895361" stroke-linecap="round" stroke-linejoin="round"/>
<path d="M428.352 512.899C428.352 512.899 429.317 512.748 430.659 512.748C432.83 512.733 435.967 513.05 437.595 514.889C440.234 517.86 438.59 530.134 436.932 532.395C434.142 536.225 404.226 538.668 401.573 538.02C398.934 537.356 397.275 536.693 396.943 533.059C396.612 529.425 395.616 520.167 398.602 517.528C401.573 514.889 428.337 512.899 428.337 512.899H428.352Z" stroke="#263238" stroke-width="0.895361" stroke-linecap="round" stroke-linejoin="round"/>
<path d="M426.754 516.397C426.754 516.397 427.583 516.292 428.714 516.277C430.554 516.261 433.223 516.503 434.61 517.89C436.857 520.137 435.454 529.395 434.052 531.114C431.685 534.009 406.277 535.849 404.031 535.351C401.784 534.853 400.382 534.356 400.11 531.611C399.824 528.867 398.994 521.886 401.512 519.895C404.031 517.905 426.754 516.397 426.754 516.397Z" fill="#263238" stroke="#263238" stroke-width="0.895361" stroke-linecap="round" stroke-linejoin="round"/>
<path d="M427.93 542.376C427.93 542.376 428.895 542.226 430.237 542.226C432.409 542.211 435.545 542.527 437.173 544.367C439.812 547.337 438.169 559.611 436.51 561.873C433.72 565.703 403.804 568.146 401.151 567.497C398.512 566.834 396.853 566.17 396.521 562.536C396.19 558.903 395.195 549.644 398.18 547.005C401.151 544.367 427.915 542.376 427.915 542.376H427.93Z" stroke="#263238" stroke-width="0.895361" stroke-linecap="round" stroke-linejoin="round"/>
<path d="M426.332 545.875C426.332 545.875 427.162 545.769 428.292 545.754C430.132 545.739 432.801 545.98 434.188 547.367C436.435 549.614 435.032 558.872 433.63 560.591C431.263 563.486 405.855 565.326 403.609 564.828C401.362 564.331 399.96 563.833 399.688 561.089C399.402 558.345 398.572 551.363 401.091 549.373C403.609 547.383 426.332 545.875 426.332 545.875Z" fill="#263238" stroke="#263238" stroke-width="0.895361" stroke-linecap="round" stroke-linejoin="round"/>
<path d="M358.132 455.963C358.132 455.963 351.89 455.556 349.869 456.37C347.849 457.169 347.05 458.586 347.246 460.004C347.442 461.421 347.442 470.167 347.653 473.318C347.864 476.56 349.764 477.932 352.086 478.158C353.94 478.339 383.736 478.762 387.174 477.555C390.612 476.349 390.204 471.509 390.204 469.895C390.204 468.282 390.612 460.652 389.601 458.632C388.591 456.611 385.364 455.812 383.751 456.008C382.137 456.204 361.57 455.571 358.147 455.978L358.132 455.963Z" stroke="#263238" stroke-width="0.895361" stroke-linecap="round" stroke-linejoin="round"/>
<path d="M384.202 485.487C384.202 485.487 355.703 484.808 352.884 485.607C350.064 486.406 347.033 487.824 347.244 490.855C347.455 493.885 346.641 502.148 348.044 504.561C349.461 506.974 350.064 507.788 351.874 508.391C353.683 508.994 383.931 509.19 385.951 508.195C387.972 507.185 389.374 505.978 389.781 503.355C390.188 500.731 390.656 491.337 389.449 488.713C388.243 486.09 384.202 485.487 384.202 485.487Z" stroke="#263238" stroke-width="0.895361" stroke-linecap="round" stroke-linejoin="round"/>
<path d="M385.152 490.236C385.152 490.236 359.142 489.829 355.508 489.829C351.874 489.829 350.471 489.829 350.26 492.86C350.064 495.891 349.657 505.164 351.27 505.767C352.884 506.37 366.394 506.566 374.054 506.566C381.714 506.566 384.745 506.37 385.951 505.36C387.158 504.35 387.369 498.303 387.369 495.076C387.369 491.85 386.961 489.633 385.152 490.236Z" fill="#263238" stroke="#263238" stroke-width="0.895361" stroke-linecap="round" stroke-linejoin="round"/>
<path d="M385.155 459.596C385.155 459.596 359.144 459.188 355.51 459.188C351.876 459.188 350.474 459.188 350.263 462.219C350.052 465.25 349.66 474.523 351.273 475.127C352.886 475.73 366.397 475.926 374.057 475.926C381.717 475.926 384.748 475.73 385.954 474.719C387.16 473.709 387.371 467.663 387.371 464.436C387.371 461.209 386.964 458.992 385.155 459.596Z" fill="#263238" stroke="#263238" stroke-width="0.895361" stroke-linecap="round" stroke-linejoin="round"/>
<path d="M384.475 515.75C384.475 515.75 355.705 514.83 352.886 515.644C350.066 516.443 347.035 517.861 347.246 520.891C347.442 523.922 346.643 532.185 348.045 534.598C349.448 537.01 350.066 537.825 351.875 538.428C353.685 539.031 383.932 539.227 385.953 538.232C387.973 537.222 389.376 536.015 389.783 533.392C390.19 530.768 390.929 521.6 389.723 518.976C388.516 516.353 384.475 515.75 384.475 515.75Z" stroke="#263238" stroke-width="0.895361" stroke-linecap="round" stroke-linejoin="round"/>
<path d="M385.155 520.287C385.155 520.287 359.144 519.88 355.51 519.88C351.876 519.88 350.474 519.88 350.263 522.911C350.052 525.941 349.66 535.215 351.273 535.818C352.886 536.421 366.397 536.617 374.057 536.617C381.717 536.617 384.748 536.421 385.954 535.411C387.16 534.401 387.371 528.354 387.371 525.127C387.371 521.9 386.964 519.684 385.155 520.287Z" fill="#263238" stroke="#263238" stroke-width="0.895361" stroke-linecap="round" stroke-linejoin="round"/>
<path d="M383.539 545.68C383.539 545.68 355.719 544.881 352.899 545.68C350.08 546.48 347.049 547.897 347.26 550.928C347.471 553.958 346.657 562.222 348.059 564.634C349.477 567.047 350.08 567.861 351.889 568.464C353.699 569.067 383.946 569.263 385.967 568.268C387.987 567.258 389.39 566.052 389.797 563.428C390.204 560.804 389.993 551.531 388.786 548.907C387.58 546.283 383.539 545.68 383.539 545.68Z" stroke="#263238" stroke-width="0.895361" stroke-linecap="round" stroke-linejoin="round"/>
<path d="M385.155 550.323C385.155 550.323 359.144 549.916 355.51 549.916C351.876 549.916 350.474 549.915 350.263 552.946C350.052 555.977 349.66 565.25 351.273 565.854C352.886 566.457 366.397 566.653 374.057 566.653C381.717 566.653 384.748 566.457 385.954 565.446C387.16 564.436 387.371 558.39 387.371 555.163C387.371 551.936 386.964 549.719 385.155 550.323Z" fill="#263238" stroke="#263238" stroke-width="0.895361" stroke-linecap="round" stroke-linejoin="round"/>
<path d="M336.419 574.148C336.419 574.148 312.248 571.645 308.644 571.374C305.041 571.102 301.98 573.59 302.251 576.38C302.523 579.154 302.523 588.594 304.196 591.097C305.87 593.6 311.977 594.429 320.858 594.987C329.739 595.545 334.746 596.374 336.962 594.987C339.179 593.6 340.023 592.484 340.294 589.152C340.566 585.819 340.566 580.27 340.023 578.039C339.48 575.807 336.419 574.148 336.419 574.148Z" fill="#666666" stroke="#263238" stroke-width="0.895361" stroke-linecap="round" stroke-linejoin="round"/>
<path d="M400.88 574.148C400.88 574.148 425.051 571.645 428.654 571.374C432.258 571.102 435.319 573.59 435.048 576.38C434.776 579.169 434.776 588.594 433.103 591.097C431.429 593.6 425.322 594.429 416.441 594.987C407.559 595.545 402.553 596.374 400.337 594.987C398.12 593.6 397.276 592.484 397.004 589.152C396.733 585.819 396.733 580.27 397.276 578.039C397.834 575.822 400.88 574.148 400.88 574.148Z" fill="#747268" stroke="#263238" stroke-width="0.895361" stroke-linecap="round" stroke-linejoin="round"/>
<path d="M349.674 577.541C349.674 577.541 348.513 590.026 349.779 592.348C351.046 594.67 351.679 595.726 354.212 595.937C356.745 596.148 379.122 596.781 382.711 595.726C386.299 594.67 387.777 592.982 387.988 591.504C388.199 590.026 388.049 579.697 387.626 578.009C387.204 576.32 385.727 574.42 382.982 574.209C380.238 573.998 360.123 573.771 356.957 573.771C353.79 573.771 350.216 575.415 349.674 577.541Z" fill="#BABABA" stroke="#263238" stroke-width="0.895361" stroke-linecap="round" stroke-linejoin="round"/>
<path d="M295.557 610.232L300.291 604.955C300.291 604.955 334.867 608.227 371.809 607.322C408.752 606.417 436.225 603.869 436.225 603.869C436.225 603.869 442.407 608.966 445.136 610.051" stroke="#263238" stroke-width="0.895361" stroke-linecap="round" stroke-linejoin="round"/>
<path d="M400.488 347.08L386.042 339.541C384.791 338.892 383.238 339.375 382.589 340.611C382.016 341.697 382.288 343.024 383.238 343.808L396.145 354.348C396.145 354.348 399.538 361.616 402.207 362.098C404.876 362.581 407.047 362.822 407.047 362.822" stroke="#263238" stroke-width="0.895361" stroke-linecap="round" stroke-linejoin="round"/>
<path d="M392.757 343.582L393.842 338.365C394.114 337.053 393.269 335.771 391.973 335.5L383.197 333.675C381.885 333.404 380.603 334.248 380.332 335.545L378.764 343.084C378.492 344.396 379.337 345.678 380.633 345.949L388.082 347.502C388.082 347.502 385.474 349.342 386.74 350.443C388.007 351.543 390.223 353.926 391.957 354.876C393.691 355.826 396.119 354.333 396.119 354.333" stroke="#263238" stroke-width="0.895361" stroke-linecap="round" stroke-linejoin="round"/>
<path d="M393.824 338.379C393.824 338.379 400.037 338.44 401.454 339.706C402.871 340.973 414.753 358.705 414.753 358.705" stroke="#263238" stroke-width="0.895361" stroke-linecap="round" stroke-linejoin="round"/>
<path d="M389.436 353.156C389.436 353.156 386.903 355.056 388.169 356.156C389.436 357.257 390.22 357.74 392.753 358.373C395.286 359.006 395.603 359.323 396.387 359.006C397.171 358.69 398.121 358.222 398.121 358.222" stroke="#263238" stroke-width="0.895361" stroke-linecap="round" stroke-linejoin="round"/>
<path d="M393.9 358.826C387.597 366.169 376.258 371.07 363.336 371.07C343.538 371.07 327.494 359.58 327.494 345.406C327.494 331.232 343.538 319.742 363.336 319.742C379.953 319.742 393.93 327.839 397.987 338.817" stroke="#263238" stroke-width="0.895361" stroke-linecap="round" stroke-linejoin="round"/>
<path d="M368.687 363.532C368.446 363.532 368.19 363.456 367.979 363.32C367.375 362.928 367.195 362.114 367.587 361.496C370.557 356.927 372.125 351.604 372.125 346.131C372.125 340.657 370.678 335.787 367.948 331.354C367.572 330.736 367.768 329.921 368.386 329.544C369.004 329.167 369.818 329.348 370.195 329.982C373.181 334.822 374.764 340.416 374.764 346.131C374.764 351.846 373.045 357.937 369.788 362.928C369.532 363.32 369.11 363.532 368.687 363.532Z" fill="#263238"/>
<path d="M362.022 360.079C361.765 360.079 361.494 360.003 361.268 359.837C360.68 359.415 360.529 358.601 360.936 358.013C363.379 354.515 364.66 350.413 364.66 346.131C364.66 342.135 363.515 338.245 361.358 334.897C360.966 334.294 361.147 333.48 361.75 333.073C362.369 332.681 363.168 332.862 363.575 333.465C366.002 337.235 367.284 341.607 367.284 346.116C367.284 350.941 365.837 355.555 363.077 359.506C362.821 359.868 362.414 360.064 361.992 360.064L362.022 360.079Z" fill="#263238"/>
<path d="M355.238 356.476C354.952 356.476 354.665 356.385 354.424 356.189C353.851 355.737 353.761 354.907 354.213 354.334C356.098 351.982 357.078 349.147 357.078 346.132C357.078 343.116 356.113 340.357 354.288 338.019C353.836 337.446 353.942 336.617 354.515 336.18C355.088 335.728 355.917 335.833 356.354 336.406C358.556 339.211 359.717 342.573 359.717 346.147C359.717 349.72 358.495 353.204 356.279 355.993C356.022 356.325 355.63 356.491 355.253 356.491L355.238 356.476Z" fill="#263238"/>
<path d="M348.318 353.972C347.896 353.972 347.488 353.776 347.232 353.399C346.825 352.796 346.991 351.981 347.579 351.574C349.388 350.353 350.474 348.317 350.474 346.131C350.474 344.412 349.81 342.798 348.619 341.562C348.107 341.034 348.122 340.205 348.649 339.707C349.177 339.195 350.007 339.21 350.504 339.737C352.178 341.456 353.098 343.733 353.098 346.131C353.098 349.192 351.59 352.042 349.041 353.745C348.815 353.896 348.559 353.972 348.303 353.972H348.318Z" fill="#263238"/>
<path d="M313.066 470.936V460.758C312.945 460.818 312.824 460.879 312.673 460.954C312.523 461.014 312.372 461.09 312.206 461.15C312.04 461.225 311.889 461.286 311.739 461.346C311.588 461.406 311.452 461.467 311.316 461.542V459.582C311.437 459.522 311.588 459.431 311.799 459.326C312.01 459.22 312.236 459.084 312.477 458.949C312.719 458.813 312.945 458.677 313.156 458.526C313.367 458.391 313.518 458.255 313.623 458.149H315.689V470.936H313.05H313.066Z" fill="white"/>
<path d="M362.9 474.163V472.308L365.961 467.603C366.187 467.257 366.413 466.925 366.609 466.593C366.821 466.261 366.986 465.93 367.107 465.598C367.243 465.266 367.303 464.904 367.303 464.542C367.303 464.181 367.228 463.894 367.077 463.728C366.926 463.547 366.73 463.457 366.474 463.457C366.187 463.457 365.976 463.532 365.81 463.698C365.66 463.849 365.539 464.06 365.494 464.331C365.433 464.588 365.403 464.889 365.403 465.221V465.854H362.84V465.176C362.84 464.422 362.96 463.743 363.202 463.155C363.443 462.567 363.82 462.085 364.348 461.753C364.875 461.406 365.569 461.24 366.413 461.24C367.559 461.24 368.419 461.542 369.007 462.13C369.595 462.718 369.882 463.547 369.882 464.618C369.882 465.13 369.806 465.613 369.64 466.05C369.474 466.488 369.263 466.925 368.992 467.332C368.72 467.754 368.434 468.176 368.132 468.629L365.795 472.112H369.535V474.178H362.855L362.9 474.163Z" fill="white"/>
<path d="M418.927 471.704C418.037 471.704 417.329 471.539 416.816 471.207C416.303 470.875 415.941 470.393 415.73 469.789C415.519 469.186 415.414 468.493 415.414 467.694V467.241H418.052V467.694C418.052 468.116 418.082 468.463 418.128 468.719C418.173 468.975 418.278 469.171 418.414 469.292C418.55 469.413 418.746 469.473 418.987 469.473C419.228 469.473 419.409 469.412 419.53 469.277C419.651 469.156 419.726 468.96 419.771 468.704C419.817 468.447 419.832 468.131 419.832 467.754C419.832 467.121 419.741 466.638 419.575 466.306C419.409 465.975 419.047 465.809 418.49 465.794H418.007V463.984H418.429C418.987 463.984 419.364 463.833 419.545 463.532C419.741 463.23 419.832 462.748 419.832 462.114C419.832 461.617 419.771 461.24 419.636 460.984C419.5 460.727 419.259 460.592 418.897 460.592C418.535 460.592 418.324 460.742 418.203 461.029C418.098 461.315 418.037 461.707 418.037 462.16V462.823H415.398V462.054C415.398 461.285 415.534 460.637 415.821 460.109C416.092 459.581 416.499 459.174 417.012 458.903C417.54 458.631 418.158 458.496 418.882 458.496C419.605 458.496 420.254 458.631 420.782 458.888C421.309 459.144 421.716 459.536 422.003 460.049C422.289 460.561 422.425 461.195 422.425 461.949C422.425 462.702 422.274 463.321 421.973 463.833C421.671 464.331 421.294 464.648 420.872 464.768C421.158 464.874 421.43 465.04 421.671 465.266C421.912 465.492 422.093 465.809 422.229 466.201C422.365 466.593 422.44 467.09 422.44 467.709C422.44 468.493 422.335 469.171 422.108 469.774C421.882 470.378 421.505 470.845 420.993 471.192C420.48 471.539 419.786 471.704 418.942 471.704H418.927Z" fill="white"/>
<path d="M315.297 501.848V498.983H311.361V497.038L314.694 489.076H317.755V497.023H318.931V498.983H317.755V501.848H315.297ZM313.367 497.007H315.297V491.685L313.367 497.007Z" fill="white"/>
<path d="M366.277 505.314C365.342 505.314 364.634 505.149 364.151 504.817C363.669 504.485 363.352 504.018 363.186 503.415C363.02 502.811 362.93 502.118 362.93 501.334H365.478C365.478 501.816 365.508 502.208 365.553 502.51C365.599 502.811 365.704 503.038 365.84 503.158C365.976 503.294 366.187 503.354 366.443 503.339C366.714 503.339 366.91 503.219 367.031 503.007C367.152 502.796 367.212 502.495 367.242 502.103C367.272 501.711 367.287 501.228 367.287 500.67C367.287 500.248 367.257 499.871 367.212 499.554C367.167 499.223 367.076 498.966 366.926 498.77C366.79 498.574 366.564 498.484 366.292 498.484C366.036 498.484 365.81 498.574 365.644 498.77C365.478 498.966 365.357 499.253 365.282 499.66H363.005L363.246 492.287H369.217V494.488H365.372L365.237 497.127C365.342 496.976 365.538 496.855 365.84 496.735C366.126 496.629 366.443 496.554 366.79 496.524C367.438 496.448 367.996 496.569 368.433 496.886C368.886 497.202 369.217 497.67 369.444 498.303C369.67 498.936 369.775 499.705 369.775 500.625C369.775 501.304 369.73 501.937 369.655 502.51C369.564 503.083 369.413 503.58 369.172 503.988C368.931 504.41 368.584 504.726 368.117 504.953C367.649 505.179 367.046 505.299 366.307 505.299L366.277 505.314Z" fill="white"/>
<path d="M419.155 502.557C418.326 502.557 417.647 502.376 417.135 502.014C416.622 501.652 416.23 501.154 415.989 500.521C415.748 499.888 415.627 499.164 415.627 498.365V493.736C415.627 492.906 415.717 492.168 415.913 491.504C416.109 490.856 416.456 490.343 416.969 489.966C417.482 489.589 418.205 489.408 419.14 489.408C419.954 489.408 420.603 489.529 421.085 489.785C421.553 490.042 421.9 490.403 422.096 490.886C422.292 491.368 422.397 491.972 422.397 492.68C422.397 492.725 422.397 492.756 422.397 492.801C422.397 492.831 422.397 492.876 422.397 492.906H419.924C419.924 492.394 419.879 492.017 419.804 491.76C419.728 491.519 419.502 491.383 419.155 491.383C418.914 491.383 418.733 491.459 418.612 491.61C418.492 491.76 418.416 492.017 418.371 492.379C418.326 492.741 418.311 493.268 418.311 493.932V495.063C418.432 494.836 418.643 494.671 418.929 494.55C419.216 494.429 419.532 494.369 419.894 494.354C420.573 494.339 421.1 494.49 421.508 494.806C421.915 495.138 422.201 495.575 422.382 496.133C422.563 496.691 422.654 497.324 422.654 498.018C422.654 498.908 422.548 499.692 422.337 500.37C422.126 501.049 421.764 501.577 421.266 501.954C420.769 502.331 420.06 502.527 419.17 502.527L419.155 502.557ZM419.185 500.627C419.427 500.627 419.608 500.551 419.713 500.385C419.819 500.22 419.894 499.978 419.939 499.662C419.97 499.345 420 498.938 420 498.47C420 498.048 420 497.686 419.955 497.385C419.924 497.083 419.864 496.842 419.743 496.661C419.623 496.48 419.427 496.405 419.155 496.405C419.035 496.405 418.914 496.435 418.793 496.48C418.673 496.525 418.582 496.601 418.492 496.676C418.401 496.751 418.341 496.827 418.296 496.902V498.983C418.296 499.27 418.326 499.541 418.371 499.782C418.416 500.039 418.507 500.235 418.643 500.385C418.778 500.536 418.959 500.612 419.185 500.612V500.627Z" fill="white"/>
<path d="M311.994 531.356L314.768 520.575H311.285V518.57H317.347V520.379L314.572 531.341H311.994V531.356Z" fill="white"/>
<path d="M366.35 534.794C365.49 534.794 364.797 534.628 364.284 534.281C363.771 533.934 363.394 533.467 363.183 532.864C362.957 532.261 362.852 531.567 362.852 530.783C362.852 530.466 362.897 530.165 362.957 529.863C363.017 529.562 363.108 529.29 363.229 529.019C363.349 528.762 363.5 528.536 363.681 528.34C363.862 528.144 364.088 527.978 364.329 527.858C363.998 527.617 363.711 527.27 363.455 526.802C363.198 526.35 363.063 525.762 363.048 525.053C363.048 524.344 363.153 523.726 363.394 523.214C363.636 522.701 364.013 522.309 364.51 522.022C365.008 521.736 365.611 521.615 366.335 521.615C367.058 521.615 367.677 521.751 368.174 522.037C368.657 522.309 369.034 522.716 369.275 523.229C369.516 523.741 369.622 524.344 369.607 525.068C369.607 525.792 369.471 526.365 369.23 526.832C368.989 527.285 368.702 527.632 368.355 527.873C368.612 527.993 368.823 528.159 369.004 528.355C369.185 528.551 369.335 528.778 369.456 529.034C369.577 529.29 369.667 529.577 369.727 529.878C369.788 530.18 369.818 530.481 369.818 530.798C369.833 531.582 369.742 532.261 369.516 532.879C369.29 533.482 368.913 533.965 368.4 534.296C367.888 534.643 367.194 534.809 366.32 534.809L366.35 534.794ZM366.35 532.849C366.636 532.849 366.832 532.743 366.968 532.532C367.089 532.321 367.179 532.065 367.209 531.778C367.239 531.492 367.255 531.22 367.255 530.979C367.255 530.647 367.255 530.346 367.209 530.029C367.179 529.728 367.089 529.471 366.968 529.275C366.847 529.079 366.636 528.989 366.35 528.989C366.063 528.989 365.882 529.079 365.747 529.275C365.626 529.471 365.536 529.712 365.505 530.014C365.475 530.316 365.445 530.632 365.445 530.964C365.445 531.205 365.46 531.477 365.49 531.763C365.52 532.065 365.596 532.306 365.732 532.517C365.867 532.728 366.063 532.819 366.335 532.819L366.35 532.849ZM366.35 526.923C366.531 526.923 366.682 526.848 366.787 526.712C366.908 526.576 366.983 526.35 367.043 526.079C367.104 525.792 367.134 525.445 367.134 525.023C367.134 524.601 367.074 524.254 366.938 523.998C366.802 523.741 366.606 523.621 366.35 523.621C366.093 523.621 365.882 523.741 365.747 523.998C365.611 524.254 365.536 524.586 365.536 525.008C365.536 525.43 365.566 525.777 365.626 526.079C365.686 526.365 365.777 526.591 365.897 526.727C366.018 526.863 366.169 526.938 366.35 526.938V526.923Z" fill="white"/>
<path d="M418.931 532.064C418.117 532.064 417.469 531.943 416.986 531.687C416.519 531.431 416.172 531.069 415.976 530.571C415.78 530.089 415.674 529.486 415.674 528.762V528.551H418.132C418.132 529.063 418.177 529.44 418.268 529.697C418.358 529.938 418.584 530.074 418.931 530.074C419.173 530.074 419.353 529.998 419.474 529.848C419.595 529.697 419.67 529.44 419.7 529.063C419.73 528.686 419.761 528.174 419.761 527.525V526.394C419.625 526.621 419.414 526.787 419.142 526.892C418.871 527.013 418.554 527.073 418.208 527.103C417.529 527.103 416.986 526.952 416.579 526.606C416.172 526.259 415.87 525.791 415.689 525.203C415.508 524.615 415.418 523.967 415.418 523.273C415.418 522.384 415.524 521.615 415.75 520.966C415.976 520.318 416.353 519.82 416.866 519.458C417.378 519.096 418.072 518.916 418.916 518.916C419.761 518.916 420.439 519.081 420.952 519.413C421.465 519.745 421.841 520.227 422.083 520.83C422.324 521.434 422.43 522.142 422.43 522.972V527.736C422.43 528.566 422.339 529.305 422.143 529.968C421.947 530.616 421.6 531.129 421.088 531.506C420.59 531.883 419.851 532.064 418.916 532.064H418.931ZM418.961 525.098C419.173 525.098 419.338 525.037 419.459 524.932C419.58 524.811 419.685 524.706 419.761 524.6V522.519C419.761 522.218 419.746 521.961 419.7 521.705C419.655 521.464 419.58 521.253 419.459 521.102C419.338 520.951 419.173 520.876 418.916 520.876C418.66 520.876 418.509 520.951 418.404 521.117C418.283 521.283 418.207 521.524 418.177 521.841C418.147 522.157 418.117 522.565 418.117 523.032C418.117 523.439 418.117 523.801 418.162 524.118C418.192 524.434 418.253 524.676 418.373 524.841C418.494 525.022 418.69 525.098 418.961 525.098Z" fill="white"/>
<path d="M311.92 561.499V548.712H317.439V550.627H314.74V553.839H317.092V555.814H314.74V561.499H311.92Z" fill="white"/>
<path d="M366.593 564.966C365.824 564.966 365.175 564.815 364.662 564.498C364.15 564.182 363.758 563.759 363.501 563.217C363.245 562.674 363.109 562.041 363.109 561.302V555.511C363.109 554.758 363.23 554.109 363.486 553.551C363.728 552.993 364.12 552.556 364.632 552.239C365.145 551.923 365.808 551.772 366.608 551.772C367.407 551.772 368.055 551.923 368.568 552.239C369.08 552.556 369.457 552.993 369.699 553.551C369.94 554.109 370.076 554.773 370.076 555.511V561.302C370.076 562.01 369.94 562.644 369.684 563.202C369.427 563.759 369.035 564.182 368.523 564.498C368.01 564.815 367.377 564.966 366.608 564.966H366.593ZM366.593 562.613C366.849 562.613 367.03 562.538 367.135 562.372C367.241 562.206 367.316 562.025 367.346 561.799C367.377 561.588 367.392 561.392 367.392 561.241V555.572C367.392 555.391 367.392 555.195 367.362 554.969C367.346 554.742 367.271 554.546 367.166 554.365C367.06 554.2 366.864 554.109 366.608 554.109C366.351 554.109 366.155 554.2 366.05 554.365C365.944 554.531 365.869 554.742 365.854 554.969C365.839 555.195 365.824 555.391 365.824 555.572V561.241C365.824 561.392 365.839 561.588 365.869 561.799C365.899 562.01 365.974 562.206 366.08 562.372C366.185 562.538 366.366 562.613 366.608 562.613H366.593Z" fill="white"/>
<path d="M410.064 561.407V558.979H412.492V561.407H410.064Z" fill="white"/>
<path d="M414.318 561.407L414.801 557.17H413.941L413.987 555.571H415.027L415.253 553.747H414.002L414.032 552.103H415.525L415.917 548.635H417.59L417.183 552.103H418.42L418.812 548.635H420.47L420.063 552.103H420.908L420.862 553.747H419.792L419.581 555.571H420.832L420.787 557.17H419.37L418.857 561.407H417.213L417.711 557.17H416.475L415.962 561.407H414.318ZM416.671 555.571H417.922L418.148 553.747H416.912L416.671 555.571Z" fill="white"/>
<path d="M424.297 554.305L422.804 553.4L423.935 551.787L422.246 551.139L422.819 549.601L424.357 550.445L424.146 548.605H426.076L425.865 550.445L427.418 549.601L427.991 551.154L426.287 551.802L427.433 553.4L425.895 554.305L425.111 552.631L424.312 554.305H424.297Z" fill="white"/>
<path d="M754.245 94.4989L705.556 20.9907L686.452 30.0831C667.347 39.1755 641.578 43.6689 606.113 54.2239C570.648 64.7789 553.655 63.1957 541.773 72.6952C529.876 82.1947 497.472 138.996 494.305 144.273C491.139 149.566 497.14 161.599 497.14 161.599C497.14 161.599 545.09 193.324 545.769 194.048C546.447 194.771 558.374 202.989 563.953 203.592C569.532 204.196 581.942 201.934 581.942 201.934C581.942 201.934 586.541 204.844 589.768 205.854C593.01 206.865 601.213 204.965 601.213 204.965C601.213 204.965 614.828 210.664 620.785 205.447C626.741 200.23 635.818 172.47 635.818 172.47C635.818 172.47 664.196 165.941 686.12 155.989C708.044 146.037 718.841 133.402 733.09 122.56C740.78 116.71 748.621 112.473 754.215 109.819V94.4989H754.245Z" fill="white" stroke="#263238" stroke-width="0.895361" stroke-linecap="round" stroke-linejoin="round"/>
<path d="M588.41 192.222C593.673 184.607 601.574 172.243 604.363 162.834" stroke="#263238" stroke-width="0.895361" stroke-linecap="round" stroke-linejoin="round"/>
<path d="M583.422 199.16C583.422 199.16 584.236 198.104 585.533 196.295" stroke="#263238" stroke-width="0.895361" stroke-linecap="round" stroke-linejoin="round"/>
<path d="M605.75 201.118C605.75 201.118 609.158 195.132 617.692 180.189C626.227 165.246 624.704 160.768 623.09 159.577" stroke="#263238" stroke-width="0.895361" stroke-linecap="round" stroke-linejoin="round"/>
<path d="M545.15 135.106C547.246 136.569 549.523 137.895 551.981 139.026" stroke="#263238" stroke-width="0.895361" stroke-linecap="round" stroke-linejoin="round"/>
<path d="M525.652 111.237C525.652 111.237 530.281 122.335 540.46 131.397" stroke="#263238" stroke-width="0.895361" stroke-linecap="round" stroke-linejoin="round"/>
<path d="M541.713 93.6689C541.713 93.6689 552.524 118.413 563.14 122.876" stroke="#263238" stroke-width="0.895361" stroke-linecap="round" stroke-linejoin="round"/>
<path d="M626.832 159.668C626.832 159.668 636.226 166.197 635.849 172.485" stroke="#263238" stroke-width="0.895361" stroke-linecap="round" stroke-linejoin="round"/>
<path d="M509.006 144.725C512.459 145.418 516.967 146.821 521.22 149.595" stroke="#263238" stroke-width="0.895361" stroke-linecap="round" stroke-linejoin="round"/>
<path d="M503.156 144.016C503.156 144.016 504.528 144.016 506.685 144.318" stroke="#263238" stroke-width="0.895361" stroke-linecap="round" stroke-linejoin="round"/>
<path d="M534.884 145.594L393.821 186.577C389.894 187.718 387.636 191.826 388.776 195.752L414.03 282.675C415.171 286.601 419.278 288.86 423.205 287.719L564.268 246.736C568.194 245.596 570.453 241.488 569.312 237.561L544.059 150.639C542.918 146.712 538.81 144.454 534.884 145.594Z" fill="#7D6AF2" stroke="#263238" stroke-width="0.895361" stroke-linecap="round" stroke-linejoin="round"/>
<path d="M413.222 218.257L423.909 215.153C426.978 214.261 430.192 216.028 431.084 219.097L434.29 230.131C435.182 233.201 433.415 236.415 430.345 237.307L419.659 240.411C416.589 241.303 413.375 239.536 412.483 236.467L409.278 225.433C408.386 222.363 410.153 219.149 413.222 218.257Z" fill="white" stroke="#263238" stroke-width="0.895361" stroke-linecap="round" stroke-linejoin="round"/>
<path d="M421.474 239.463L415.246 218.006" stroke="#263238" stroke-width="0.895361" stroke-linecap="round" stroke-linejoin="round"/>
<path d="M428.247 237.502L423.406 220.81L430.93 218.624" stroke="#263238" stroke-width="0.895361" stroke-linecap="round" stroke-linejoin="round"/>
<path d="M409.59 225.621L416.647 223.57" stroke="#263238" stroke-width="0.895361" stroke-linecap="round" stroke-linejoin="round"/>
<path d="M410.949 230.326L418.021 228.275" stroke="#263238" stroke-width="0.895361" stroke-linecap="round" stroke-linejoin="round"/>
<path d="M412.369 235.181L419.426 233.13" stroke="#263238" stroke-width="0.895361" stroke-linecap="round" stroke-linejoin="round"/>
<path d="M425.469 225.952L432.526 223.901" stroke="#263238" stroke-width="0.895361" stroke-linecap="round" stroke-linejoin="round"/>
<path d="M426.932 230.958L433.4 229.073" stroke="#263238" stroke-width="0.895361" stroke-linecap="round" stroke-linejoin="round"/>
<path d="M420.449 260.273C419.966 258.644 419.876 257.332 420.162 256.367C420.449 255.402 421.112 254.769 422.153 254.468C423.193 254.166 424.098 254.347 424.852 255.01C425.606 255.674 426.224 256.82 426.692 258.463C427.174 260.092 427.265 261.404 426.978 262.369C426.692 263.334 426.028 263.967 424.988 264.269C423.947 264.57 423.042 264.389 422.289 263.726C421.535 263.062 420.916 261.916 420.449 260.288V260.273ZM422.605 256.051C422.168 256.171 421.942 256.533 421.897 257.121C421.851 257.709 422.002 258.584 422.334 259.73C422.439 260.092 422.545 260.408 422.65 260.71L423.812 256.609C423.812 256.609 423.796 256.579 423.781 256.579C423.435 256.111 423.042 255.93 422.605 256.066V256.051ZM423.359 262.158C423.706 262.625 424.098 262.806 424.535 262.67C424.973 262.55 425.214 262.188 425.259 261.6C425.304 261.012 425.153 260.152 424.822 258.991C424.701 258.554 424.565 258.162 424.43 257.83L423.239 261.992C423.239 261.992 423.314 262.112 423.359 262.158Z" fill="white" stroke="#263238" stroke-width="0.44768" stroke-miterlimit="10"/>
<path d="M429.54 260.951L431.621 260.348L429.841 254.226L428.047 255.266L427.564 253.577L429.389 252.537L431.183 252.009L433.445 259.805L435.526 259.202L436.008 260.845L430.022 262.579L429.54 260.936V260.951Z" fill="white" stroke="#263238" stroke-width="0.44768" stroke-miterlimit="10"/>
<path d="M436.041 255.749C435.558 254.12 435.468 252.809 435.754 251.844C436.041 250.878 436.704 250.245 437.745 249.944C438.785 249.642 439.69 249.823 440.444 250.486C441.198 251.15 441.816 252.296 442.283 253.939C442.751 255.568 442.856 256.88 442.57 257.845C442.283 258.81 441.62 259.443 440.579 259.745C439.539 260.046 438.634 259.865 437.88 259.202C437.126 258.538 436.508 257.392 436.041 255.764V255.749ZM438.197 251.527C437.76 251.647 437.534 252.009 437.488 252.597C437.443 253.186 437.594 254.06 437.926 255.206C438.031 255.568 438.137 255.885 438.242 256.171L439.403 252.07C439.403 252.07 439.388 252.04 439.373 252.04C439.026 251.572 438.634 251.406 438.197 251.527ZM438.951 257.634C439.298 258.101 439.69 258.282 440.127 258.146C440.564 258.026 440.806 257.664 440.851 257.076C440.896 256.488 440.745 255.628 440.414 254.467C440.293 254.03 440.157 253.638 440.022 253.306L438.83 257.468C438.83 257.468 438.906 257.588 438.951 257.634Z" fill="white" stroke="#263238" stroke-width="0.44768" stroke-miterlimit="10"/>
<path d="M445.133 256.426L447.214 255.823L445.435 249.701L443.641 250.742L443.158 249.053L444.983 248.013L446.777 247.485L449.039 255.28L451.12 254.677L451.602 256.321L445.616 258.055L445.133 256.411V256.426Z" fill="white" stroke="#263238" stroke-width="0.44768" stroke-miterlimit="10"/>
<path d="M451.633 251.209C451.165 249.581 451.06 248.269 451.346 247.304C451.633 246.339 452.296 245.706 453.336 245.404C454.377 245.102 455.282 245.283 456.035 245.947C456.789 246.61 457.408 247.756 457.875 249.4C458.358 251.028 458.448 252.34 458.162 253.305C457.875 254.27 457.212 254.904 456.171 255.205C455.131 255.507 454.226 255.326 453.472 254.662C452.718 253.999 452.1 252.853 451.633 251.224V251.209ZM453.774 246.987C453.351 247.108 453.11 247.47 453.065 248.058C453.02 248.646 453.171 249.521 453.502 250.666C453.608 251.028 453.713 251.345 453.819 251.632L454.98 247.53C454.98 247.53 454.965 247.5 454.95 247.5C454.603 247.033 454.211 246.867 453.774 246.987ZM454.543 253.109C454.89 253.577 455.282 253.758 455.719 253.622C456.156 253.501 456.397 253.139 456.443 252.551C456.488 251.963 456.337 251.104 456.005 249.943C455.885 249.505 455.749 249.113 455.613 248.782L454.422 252.943C454.422 252.943 454.497 253.064 454.543 253.109Z" fill="white" stroke="#263238" stroke-width="0.44768" stroke-miterlimit="10"/>
<path d="M460.723 251.887L462.804 251.284L461.025 245.162L459.231 246.202L458.748 244.513L460.573 243.473L462.367 242.945L464.629 250.741L466.71 250.138L467.192 251.781L461.206 253.515L460.723 251.872V251.887Z" fill="white" stroke="#263238" stroke-width="0.44768" stroke-miterlimit="10"/>
<path d="M467.222 246.686C466.74 245.057 466.649 243.746 466.936 242.781C467.222 241.815 467.886 241.182 468.926 240.881C469.967 240.579 470.871 240.76 471.625 241.423C472.379 242.087 472.998 243.233 473.465 244.876C473.947 246.505 474.038 247.817 473.751 248.782C473.465 249.747 472.801 250.38 471.761 250.682C470.721 250.983 469.816 250.802 469.062 250.139C468.308 249.475 467.69 248.329 467.222 246.701V246.686ZM469.364 242.464C468.926 242.585 468.7 242.946 468.655 243.534C468.61 244.123 468.76 244.997 469.092 246.143C469.198 246.505 469.303 246.822 469.409 247.108L470.57 243.007C470.57 243.007 470.555 242.977 470.54 242.977C470.193 242.509 469.801 242.343 469.364 242.464ZM470.117 248.571C470.464 249.038 470.856 249.219 471.294 249.083C471.731 248.963 471.972 248.601 472.017 248.013C472.063 247.425 471.912 246.565 471.58 245.404C471.459 244.967 471.324 244.575 471.188 244.243L469.997 248.405C469.997 248.405 470.072 248.525 470.117 248.571Z" fill="white" stroke="#263238" stroke-width="0.44768" stroke-miterlimit="10"/>
<path d="M476.313 247.363L478.394 246.76L476.615 240.638L474.82 241.679L474.338 239.99L476.162 238.95L477.957 238.422L480.219 246.218L482.299 245.614L482.782 247.258L476.796 248.992L476.313 247.348V247.363Z" fill="white" stroke="#263238" stroke-width="0.44768" stroke-miterlimit="10"/>
<path d="M482.801 242.162C482.318 240.534 482.228 239.222 482.514 238.257C482.801 237.292 483.464 236.659 484.504 236.357C485.545 236.056 486.45 236.237 487.203 236.9C487.957 237.563 488.576 238.709 489.043 240.353C489.526 241.981 489.616 243.293 489.33 244.258C489.043 245.223 488.38 245.857 487.339 246.158C486.299 246.46 485.394 246.279 484.64 245.615C483.886 244.952 483.268 243.806 482.801 242.178V242.162ZM484.957 237.925C484.535 238.046 484.293 238.408 484.248 238.996C484.203 239.584 484.354 240.459 484.685 241.605C484.791 241.966 484.896 242.283 485.002 242.57L486.163 238.468C486.163 238.468 486.148 238.438 486.133 238.438C485.786 237.971 485.394 237.805 484.957 237.925ZM485.711 244.047C486.058 244.515 486.45 244.696 486.887 244.56C487.324 244.439 487.565 244.077 487.611 243.489C487.656 242.901 487.505 242.042 487.173 240.881C487.053 240.443 486.917 240.051 486.781 239.72L485.59 243.881C485.59 243.881 485.665 244.002 485.711 244.047Z" fill="white" stroke="#263238" stroke-width="0.44768" stroke-miterlimit="10"/>
<path d="M491.907 242.841L493.988 242.237L492.208 236.115L490.414 237.156L489.932 235.467L491.756 234.427L493.55 233.899L495.812 241.695L497.893 241.091L498.376 242.735L492.389 244.469L491.907 242.825V242.841Z" fill="white" stroke="#263238" stroke-width="0.44768" stroke-miterlimit="10"/>
<path d="M498.388 237.623C497.906 235.994 497.815 234.683 498.102 233.718C498.388 232.752 499.052 232.119 500.092 231.818C501.133 231.516 502.037 231.697 502.791 232.36C503.545 233.024 504.164 234.17 504.631 235.813C505.114 237.442 505.204 238.754 504.917 239.719C504.631 240.684 503.968 241.317 502.927 241.619C501.887 241.92 500.982 241.739 500.228 241.076C499.474 240.412 498.856 239.266 498.388 237.638V237.623ZM500.545 233.401C500.107 233.521 499.881 233.883 499.836 234.471C499.791 235.06 499.942 235.934 500.273 237.08C500.379 237.442 500.484 237.759 500.59 238.045L501.751 233.944C501.751 233.944 501.736 233.914 501.721 233.914C501.374 233.446 500.982 233.28 500.545 233.401ZM501.299 239.523C501.645 239.99 502.037 240.171 502.475 240.035C502.912 239.915 503.153 239.553 503.199 238.965C503.244 238.377 503.093 237.517 502.761 236.356C502.641 235.919 502.505 235.527 502.369 235.195L501.178 239.357C501.178 239.357 501.253 239.478 501.299 239.523Z" fill="white" stroke="#263238" stroke-width="0.44768" stroke-miterlimit="10"/>
<path d="M507.483 238.302L509.564 237.699L507.785 231.577L505.99 232.617L505.508 230.929L507.332 229.888L509.127 229.36L511.388 237.156L513.469 236.553L513.952 238.196L507.966 239.93L507.483 238.287V238.302Z" fill="white" stroke="#263238" stroke-width="0.44768" stroke-miterlimit="10"/>
<path d="M513.98 233.1C513.498 231.471 513.407 230.16 513.694 229.195C513.98 228.23 514.644 227.596 515.684 227.295C516.725 226.993 517.629 227.174 518.383 227.838C519.137 228.501 519.755 229.647 520.223 231.29C520.705 232.919 520.796 234.231 520.509 235.196C520.223 236.161 519.559 236.794 518.519 237.096C517.478 237.397 516.574 237.216 515.82 236.553C515.066 235.889 514.448 234.744 513.98 233.115V233.1ZM516.136 228.878C515.699 228.999 515.473 229.36 515.428 229.949C515.383 230.537 515.533 231.411 515.865 232.557C515.971 232.919 516.076 233.236 516.182 233.522L517.343 229.421C517.343 229.421 517.328 229.391 517.313 229.391C516.966 228.923 516.574 228.757 516.136 228.878ZM516.89 234.985C517.237 235.452 517.629 235.633 518.067 235.497C518.504 235.377 518.745 235.015 518.79 234.427C518.836 233.839 518.685 232.979 518.353 231.818C518.232 231.381 518.097 230.989 517.961 230.657L516.77 234.819C516.77 234.819 516.845 234.94 516.89 234.985Z" fill="white" stroke="#263238" stroke-width="0.44768" stroke-miterlimit="10"/>
<path d="M523.073 233.779L525.154 233.175L523.375 227.053L521.58 228.094L521.098 226.405L522.922 225.365L524.717 224.837L526.978 232.633L529.059 232.029L529.542 233.673L523.555 235.407L523.073 233.763V233.779Z" fill="white" stroke="#263238" stroke-width="0.44768" stroke-miterlimit="10"/>
<path d="M529.574 228.562C529.091 226.933 529.001 225.622 529.287 224.657C529.574 223.691 530.237 223.058 531.278 222.757C532.318 222.455 533.223 222.636 533.977 223.299C534.731 223.963 535.349 225.109 535.817 226.752C536.299 228.381 536.39 229.693 536.103 230.658C535.817 231.623 535.153 232.256 534.113 232.558C533.072 232.859 532.167 232.678 531.414 232.015C530.66 231.351 530.041 230.205 529.574 228.577V228.562ZM531.73 224.34C531.293 224.46 531.067 224.822 531.022 225.41C530.976 225.999 531.127 226.873 531.459 228.019C531.564 228.381 531.67 228.698 531.775 228.984L532.937 224.883C532.937 224.883 532.921 224.853 532.906 224.853C532.56 224.385 532.168 224.219 531.73 224.34ZM532.484 230.462C532.831 230.929 533.223 231.11 533.66 230.974C534.098 230.854 534.339 230.492 534.384 229.904C534.429 229.316 534.278 228.456 533.947 227.295C533.826 226.858 533.69 226.466 533.555 226.134L532.364 230.296C532.364 230.296 532.439 230.417 532.484 230.462Z" fill="white" stroke="#263238" stroke-width="0.44768" stroke-miterlimit="10"/>
<path d="M538.665 229.255L540.746 228.652L538.966 222.53L537.172 223.57L536.689 221.882L538.514 220.841L540.308 220.313L542.57 228.109L544.651 227.506L545.133 229.15L539.147 230.884L538.665 229.24V229.255Z" fill="white" stroke="#263238" stroke-width="0.44768" stroke-miterlimit="10"/>
<path d="M546.464 226.978L548.544 226.375L546.765 220.253L544.971 221.294L544.488 219.605L546.313 218.564L548.107 218.037L550.369 225.832L552.45 225.229L552.932 226.873L546.946 228.607L546.464 226.963V226.978Z" fill="white" stroke="#263238" stroke-width="0.44768" stroke-miterlimit="10"/>
<path d="M514.648 171.444L504.983 174.248C502.314 175.017 499.509 173.494 498.74 170.81C497.971 168.141 499.494 165.337 502.178 164.568L511.844 161.763C514.512 160.994 517.317 162.517 518.086 165.201C518.855 167.87 517.332 170.675 514.648 171.444Z" stroke="#263238" stroke-width="0.895361" stroke-linecap="round" stroke-linejoin="round"/>
<path d="M528.472 167.418L518.807 170.222C516.138 170.991 513.333 169.468 512.564 166.784C511.795 164.116 513.318 161.311 516.002 160.542L525.668 157.737C528.337 156.968 531.141 158.491 531.91 161.175C532.679 163.844 531.156 166.649 528.472 167.418Z" stroke="#263238" stroke-width="0.895361" stroke-linecap="round" stroke-linejoin="round"/>
<path d="M576.061 102.038C576.061 102.038 563.35 129.255 554.242 137.925C545.135 146.595 507.906 171.023 498.557 181.231C487.308 193.505 498.346 206.804 506.277 211.026C514.209 215.248 520.24 214.524 542.345 201.873C564.451 189.223 571.613 165.851 594.397 160.965C617.18 156.08 644.804 156.291 665.537 141.031C686.27 125.772 694.669 119.017 694.413 117.584" fill="white"/>
<path d="M576.061 102.038C576.061 102.038 563.35 129.255 554.242 137.925C545.135 146.595 507.906 171.023 498.557 181.231C487.308 193.505 498.346 206.804 506.277 211.026C514.209 215.248 520.24 214.524 542.345 201.873C564.451 189.223 571.613 165.851 594.397 160.965C617.18 156.08 644.804 156.291 665.537 141.031C686.27 125.772 694.669 119.017 694.413 117.584" stroke="#263238" stroke-width="0.895361" stroke-linecap="round" stroke-linejoin="round"/>
<path d="M521.704 207.861C530.404 200.834 531.61 197.487 530.042 195.843C528.474 194.2 514.767 175.834 514.767 175.834C514.767 175.834 501.106 181.926 497.141 186.344C493.175 190.747 495.195 199.809 503.247 205.961C511.299 212.113 517.436 210.982 519.08 210.047" stroke="#263238" stroke-width="0.895361" stroke-linecap="round" stroke-linejoin="round"/>
<path d="M731.974 0.755859L698.5 20.7501L754.246 114.795V0.755859H731.974Z" fill="#263238" stroke="#263238" stroke-width="0.895361" stroke-linecap="round" stroke-linejoin="round"/>
<path d="M275.287 497.551C266.119 496.752 253.348 507.925 253.348 507.925L148.431 509.524C148.431 509.524 150.029 496.752 145.234 493.57C140.455 490.374 137.258 496.36 131.272 500.748C125.285 505.136 101.748 520.697 101.748 520.697C101.748 520.697 65.4536 544.235 57.8691 549.814C50.2846 555.393 31.1348 588.912 31.1348 588.912C31.1348 588.912 18.3632 612.45 14.7745 624.815C11.1858 637.179 7.59709 648.744 7.59709 648.744L0.736328 656.299V754.249H43.8309L84.1963 724.137C84.1963 724.137 94.9624 720.549 104.145 716.553C113.313 712.557 133.669 701.791 154.402 690.225C175.15 678.66 195.883 663.898 195.883 663.898C195.883 663.898 219.014 639.169 228.996 629.187C238.963 619.22 248.538 598.864 251.734 587.706C254.931 576.533 259.711 545.426 259.711 545.426C259.711 545.426 261.701 541.837 266.888 534.253C272.076 526.668 279.253 520.29 282.842 511.122C286.43 501.954 284.44 498.35 275.257 497.566L275.287 497.551Z" fill="white" stroke="#263238" stroke-width="0.895361" stroke-linecap="round" stroke-linejoin="round"/>
<path d="M258.474 504.005C255.413 506.116 253.332 507.925 253.332 507.925L148.415 509.524C148.415 509.524 148.536 508.513 148.611 506.99C145.385 516.43 137.679 536.74 130.291 539.485C120.626 543.074 114.262 553.025 114.262 553.025L102.531 562.465C102.531 562.465 109.558 563.791 113.704 564.063C117.851 564.334 123.656 567.652 133.865 569.582C144.088 571.512 183.865 589.199 183.865 589.199C183.865 589.199 194.918 597.492 197.406 608.816C199.894 620.14 195.747 629.263 195.747 629.263L244.602 605.499C247.829 598.91 250.347 592.471 251.719 587.706C252.518 584.932 253.408 580.921 254.297 576.473L253.498 569.868C253.498 569.868 247.979 544.174 248.522 532.579C248.914 524.21 255.051 510.835 258.459 504.005H258.474Z" fill="#263238" stroke="#263238" stroke-width="0.895361" stroke-linecap="round" stroke-linejoin="round"/>
<path d="M238.435 619.281C238.435 619.281 256.544 590.737 259.575 582.504C262.591 574.271 260.676 565.767 259.575 559.177C258.474 552.588 260.947 542.983 257.66 539.967C254.373 536.952 244.753 536.952 240.923 544.355C237.078 551.774 238.45 558.906 239.55 565.767C240.651 572.627 241.194 576.201 241.194 576.201C241.194 576.201 233.775 584.163 233.775 584.992" fill="white"/>
<path d="M238.435 619.281C238.435 619.281 256.544 590.737 259.575 582.504C262.591 574.271 260.676 565.767 259.575 559.177C258.474 552.588 260.947 542.983 257.66 539.967C254.373 536.952 244.753 536.952 240.923 544.355C237.078 551.774 238.45 558.906 239.55 565.767C240.651 572.627 241.194 576.201 241.194 576.201C241.194 576.201 233.775 584.163 233.775 584.992" stroke="#263238" stroke-width="0.895361" stroke-linecap="round" stroke-linejoin="round"/>
<path d="M197.541 660.731C197.541 660.731 228.83 634.374 232.946 627.241C237.062 620.109 244.195 606.659 244.481 598.426C244.768 590.193 239.264 580.317 238.163 575.643C237.062 570.983 229.659 570.697 224.985 576.185C220.325 581.674 222.24 592.38 222.512 595.124C222.783 597.868 223.054 600.613 223.054 600.613C223.054 600.613 217.008 606.373 215.364 609.946C213.721 613.52 212.077 617.078 212.077 617.078C212.077 617.078 203.286 622.296 199.728 624.769C196.154 627.241 192.596 633.001 192.596 633.001" fill="white"/>
<path d="M197.541 660.731C197.541 660.731 228.83 634.374 232.946 627.241C237.062 620.109 244.195 606.659 244.481 598.426C244.768 590.193 239.264 580.317 238.163 575.643C237.062 570.983 229.659 570.697 224.985 576.185C220.325 581.674 222.24 592.38 222.512 595.124C222.783 597.868 223.054 600.613 223.054 600.613C223.054 600.613 217.008 606.373 215.364 609.946C213.721 613.52 212.077 617.078 212.077 617.078C212.077 617.078 203.286 622.296 199.728 624.769C196.154 627.241 192.596 633.001 192.596 633.001" stroke="#263238" stroke-width="0.895361" stroke-linecap="round" stroke-linejoin="round"/>
<path d="M225.256 603.087C225.256 603.087 228.272 610.219 235.69 611.32" stroke="#263238" stroke-width="0.895361" stroke-linecap="round" stroke-linejoin="round"/>
<path d="M213.466 619.009C213.466 619.009 210.45 628.614 223.071 631.917" stroke="#263238" stroke-width="0.895361" stroke-linecap="round" stroke-linejoin="round"/>
<path d="M243.109 577.558C243.109 577.558 242.566 586.062 254.644 584.419" stroke="#263238" stroke-width="0.895361" stroke-linecap="round" stroke-linejoin="round"/>
<path d="M188.48 598.699C188.48 598.699 193.14 605.56 193.698 615.165" stroke="#263238" stroke-width="0.895361" stroke-linecap="round" stroke-linejoin="round"/>
<path d="M124.802 542.154C124.802 542.154 114.368 552.317 112.453 554.503C110.538 556.705 102.577 562.465 102.577 562.465C102.577 562.465 100.104 569.325 97.6309 573.442" stroke="#263238" stroke-width="0.895361" stroke-linecap="round" stroke-linejoin="round"/>
<path d="M118.486 581.131C118.486 581.131 116.842 604.458 102.834 620.939" stroke="#263238" stroke-width="0.895361" stroke-linecap="round" stroke-linejoin="round"/>
<path d="M150.648 589.667C150.648 589.667 140.816 604.82 151.462 626.941C162.107 649.061 166.209 662.979 166.209 662.979" stroke="#263238" stroke-width="0.895361" stroke-linecap="round" stroke-linejoin="round"/>
<path d="M208.459 388.971L116.736 557.248C112.228 565.526 116.872 575.825 126.055 577.936L199.744 594.794C206.152 596.256 212.711 593.15 215.652 587.27L304.464 409.282C307.179 403.823 303.801 397.31 297.77 396.405L217.657 384.402C213.933 383.844 210.253 385.669 208.444 388.986L208.459 388.971Z" fill="white" stroke="#263238" stroke-width="0.895361" stroke-linecap="round" stroke-linejoin="round"/>
<path d="M206.108 401.14L124.639 551.051L219.8 572.825L296.263 417.59L206.108 401.14Z" fill="#7B69F2" stroke="#263238" stroke-width="0.895361" stroke-linecap="round" stroke-linejoin="round"/>
<path d="M306.814 405.965L306.799 405.934C306.753 405.844 306.693 405.769 306.648 405.678L305.14 403.115C305.638 405.09 305.472 407.261 304.461 409.282L215.649 587.27C212.723 593.15 206.149 596.256 199.741 594.794L126.052 577.936C121.287 576.85 117.758 573.548 116.085 569.477L115.994 569.447C115.994 569.447 116.552 576.036 123.564 581.072C123.564 581.072 124.483 581.856 126.308 582.022C126.986 582.294 127.695 582.535 128.449 582.716L202.138 599.574C208.547 601.036 215.106 597.93 218.046 592.049L306.859 414.062C308.216 411.348 308.05 408.377 306.814 405.965Z" fill="#919191" stroke="#263238" stroke-width="0.895361" stroke-linecap="round" stroke-linejoin="round"/>
<path d="M263.808 459.718C263.673 459.914 263.537 460.125 263.401 460.321C261.169 463.442 256.872 463.895 255.621 461.105C254.429 458.436 252.982 455.948 251.172 453.732C247.795 449.6 243.528 446.509 238.356 444.458C234.767 443.041 230.907 442.181 226.775 441.955C216.492 441.352 206.223 444.096 196 450.143C195.05 450.716 194.1 451.108 193.09 451.138C191.129 451.214 189.697 449.992 189.561 448.122C189.426 446.253 190.617 444.202 192.517 443.041C195.095 441.473 197.719 440.07 200.418 438.849C207.203 435.758 214.004 433.873 220.834 433.164C227.017 432.531 232.867 432.923 238.386 434.325C246.362 436.346 252.876 440.266 257.988 446.042C260.551 448.937 262.587 452.224 264.155 455.843C264.502 456.642 264.547 457.531 264.276 458.512C264.261 458.587 264.246 458.662 264.246 458.723C264.11 459.054 263.959 459.386 263.823 459.703L263.808 459.718Z" fill="white"/>
<path d="M209.402 491.639C208.965 491.383 208.467 491.187 208.09 490.855C206.537 489.543 206.447 487.04 207.819 484.854C209.206 482.652 211.694 481.28 213.926 481.461C216.58 481.687 218.057 484.055 217.198 486.754C216.278 489.664 213.443 491.835 210.624 491.79C210.563 491.79 210.503 491.805 210.443 491.82C210.096 491.76 209.749 491.7 209.402 491.639Z" fill="white"/>
<path d="M228.253 449.706C238.024 451.621 244.885 456.823 248.73 465.433C249.378 466.896 248.926 468.765 247.569 470.243C246.242 471.706 244.327 472.444 242.729 472.068C241.718 471.841 241.04 471.253 240.648 470.349C239.668 468.117 238.386 466.127 236.743 464.408C234.239 461.769 231.148 459.869 227.469 458.768C221.166 456.883 214.381 457.351 207.143 460.17C205.047 460.985 202.997 462.025 201.006 463.216C199.906 463.88 198.82 464.151 197.749 463.985C196.121 463.744 195.111 462.478 195.156 460.804C195.201 459.13 196.302 457.381 197.975 456.356C200.433 454.863 202.966 453.581 205.545 452.526C211.29 450.204 216.959 449.058 222.538 449.148C224.499 449.178 226.414 449.359 228.268 449.676L228.253 449.706Z" fill="white"/>
<path d="M234.105 477.404C233.2 479.244 231.874 480.45 230.034 480.873C228.194 481.295 226.867 480.752 226.174 479.319C225.435 477.751 224.485 476.379 223.143 475.324C218.951 471.961 212.347 472.052 206.421 475.58C204.31 476.847 202.184 476.651 201.128 475.354C199.666 473.544 200.706 470.393 203.285 468.825C207.642 466.186 212.106 464.663 216.629 464.497C224.817 464.196 230.592 467.287 233.894 473.755C234.301 474.54 234.573 475.384 234.361 476.409C234.286 476.771 234.165 477.133 234.09 477.404H234.105Z" fill="white"/>
</g>
<defs>
<clipPath id="clip0_265_4599">
<rect width="755" height="755" fill="white"/>
</clipPath>
</defs>
</svg>
