<svg width="386" height="77" viewBox="0 0 386 77" fill="none" xmlns="http://www.w3.org/2000/svg">
<g filter="url(#filter0_d_265_4860)">
<path d="M11.4375 1.46875H30.6094L24.0938 67.0938H4.5L11.4375 1.46875ZM28.1719 67.2812L34.7812 1.32812H79.3594C92.2344 1.04688 98.3125 8.03125 97.5938 22.2812L93.0938 67.2344H75.6094L80.0156 26.0312C80.7969 21.7812 79.2188 19.7969 75.2812 20.0781H51L46.3125 67.2812H28.1719ZM96.0938 67.1406L100.125 25.9844C101.562 10.2969 109.484 2.09375 123.891 1.375L169.078 1.42188L167.484 17.4531H127.453C124.047 17.3281 121.594 18.9219 120.094 22.2344L119.766 25.6562L166.781 25.6094L165.188 41.4062L118.453 41.3594L115.828 67.1406H96.0938ZM216.516 67.9375H185.391C171.547 68 165.781 56.8594 168.094 34.5156C170.25 11.9219 178.672 0.5625 193.359 0.4375L218.906 0.484375C234.25 0.203125 240.703 11.1094 238.266 33.2031C237.234 56.0781 229.984 67.6562 216.516 67.9375ZM186.047 45.1562C186.984 48.1562 188.906 49.9375 191.812 50.5L210.188 50.4531C213.312 50.1094 215.5 48.6875 216.75 46.1875C218.281 44.4375 219.344 40.1719 219.938 33.3906C220.531 26.5781 220.062 22.2344 218.531 20.3594C217.062 18.3906 214.781 17.2656 211.688 16.9844H197.531C193.438 17.2969 190.531 19.2812 188.812 22.9375C187.688 24.625 186.797 28.4531 186.141 34.4219C185.484 40.3594 185.453 43.9375 186.047 45.1562ZM287.859 67.9375H256.734C242.891 68 237.125 56.8594 239.438 34.5156C241.594 11.9219 250.016 0.5625 264.703 0.4375L290.25 0.484375C305.594 0.203125 312.047 11.1094 309.609 33.2031C308.578 56.0781 301.328 67.6562 287.859 67.9375ZM257.391 45.1562C258.328 48.1562 260.25 49.9375 263.156 50.5L281.531 50.4531C284.656 50.1094 286.844 48.6875 288.094 46.1875C289.625 44.4375 290.688 40.1719 291.281 33.3906C291.875 26.5781 291.406 22.2344 289.875 20.3594C288.406 18.3906 286.125 17.2656 283.031 16.9844H268.875C264.781 17.2969 261.875 19.2812 260.156 22.9375C259.031 24.625 258.141 28.4531 257.484 34.4219C256.828 40.3594 256.797 43.9375 257.391 45.1562ZM315.047 1.65625L359.719 1.70312C373.938 2.51562 379.969 13.4219 377.812 34.4219C375.688 55.4219 367.922 66.3281 354.516 67.1406L308.484 67.0938L315.047 1.65625ZM327.047 50.4062L352.688 50.4531C355.406 50.0781 357.359 48.5938 358.547 46C360.078 43.5625 361.125 39.7188 361.688 34.4688C362.281 29.2188 361.859 24.7969 360.422 21.2031C359.422 18.9844 357.422 17.8125 354.422 17.6875H330.281L327.047 50.4062Z" fill="white"/>
</g>
<defs>
<filter id="filter0_d_265_4860" x="0.5" y="0.0625" width="384.547" height="75.9688" filterUnits="userSpaceOnUse" color-interpolation-filters="sRGB">
<feFlood flood-opacity="0" result="BackgroundImageFix"/>
<feColorMatrix in="SourceAlpha" type="matrix" values="0 0 0 0 0 0 0 0 0 0 0 0 0 0 0 0 0 0 127 0" result="hardAlpha"/>
<feOffset dy="4"/>
<feGaussianBlur stdDeviation="2"/>
<feComposite in2="hardAlpha" operator="out"/>
<feColorMatrix type="matrix" values="0 0 0 0 0 0 0 0 0 0 0 0 0 0 0 0 0 0 0.25 0"/>
<feBlend mode="normal" in2="BackgroundImageFix" result="effect1_dropShadow_265_4860"/>
<feBlend mode="normal" in="SourceGraphic" in2="effect1_dropShadow_265_4860" result="shape"/>
</filter>
</defs>
</svg>
