<svg width="28" height="27" viewBox="0 0 28 27" fill="none" xmlns="http://www.w3.org/2000/svg">
<path d="M7.52914 9.02601V7.92059C7.52914 4.25756 10.4986 1.28809 14.1616 1.28809C17.8247 1.28809 20.7942 4.25756 20.7942 7.92059V9.02601H23.005C23.6155 9.02601 24.1104 9.52092 24.1104 10.1314V23.3964C24.1104 24.007 23.6155 24.5019 23.005 24.5019H5.31831C4.70781 24.5019 4.21289 24.007 4.21289 23.3964V10.1314C4.21289 9.52092 4.70781 9.02601 5.31831 9.02601H7.52914ZM21.8996 11.2368H6.42373V22.291H21.8996V11.2368ZM13.0562 17.5735C12.3954 17.1913 11.9508 16.4769 11.9508 15.6585C11.9508 14.4375 12.9406 13.4477 14.1616 13.4477C15.3827 13.4477 16.3725 14.4375 16.3725 15.6585C16.3725 16.4769 15.9279 17.1913 15.2671 17.5735V20.0802H13.0562V17.5735ZM9.73998 9.02601H18.5833V7.92059C18.5833 5.47857 16.6036 3.49892 14.1616 3.49892C11.7196 3.49892 9.73998 5.47857 9.73998 7.92059V9.02601Z" fill="#1C1C1C"/>
</svg>
