<svg width="36" height="37" viewBox="0 0 36 37" fill="none" xmlns="http://www.w3.org/2000/svg">
<rect y="0.5" width="36" height="36" rx="18" fill="#F4F6FA"/>
<path d="M18.0975 15.5C17.5042 15.5 16.9242 15.6759 16.4308 16.0056C15.9375 16.3352 15.553 16.8038 15.3259 17.3519C15.0988 17.9001 15.0394 18.5033 15.1552 19.0853C15.2709 19.6672 15.5567 20.2018 15.9762 20.6213C16.3958 21.0409 16.9303 21.3266 17.5123 21.4424C18.0942 21.5581 18.6974 21.4987 19.2456 21.2716C19.7938 21.0446 20.2623 20.6601 20.5919 20.1667C20.9216 19.6734 21.0975 19.0933 21.0975 18.5C21.0975 17.7044 20.7815 16.9413 20.2189 16.3787C19.6562 15.8161 18.8932 15.5 18.0975 15.5ZM18.0975 20C17.8009 20 17.5109 19.912 17.2642 19.7472C17.0175 19.5824 16.8252 19.3481 16.7117 19.074C16.5982 18.7999 16.5685 18.4983 16.6264 18.2074C16.6842 17.9164 16.8271 17.6491 17.0369 17.4393C17.2467 17.2296 17.5139 17.0867 17.8049 17.0288C18.0959 16.9709 18.3975 17.0006 18.6716 17.1142C18.9457 17.2277 19.1799 17.42 19.3447 17.6666C19.5096 17.9133 19.5975 18.2033 19.5975 18.5C19.5975 18.8978 19.4395 19.2794 19.1582 19.5607C18.8769 19.842 18.4954 20 18.0975 20Z" fill="#474D66"/>
<path d="M25.068 19.925L24.735 19.733C24.8849 18.9173 24.8849 18.0812 24.735 17.2655L25.068 17.0735C25.3241 16.9258 25.5486 16.729 25.7286 16.4945C25.9087 16.2601 26.0408 15.9924 26.1174 15.7069C26.194 15.4213 26.2136 15.1235 26.1751 14.8304C26.1366 14.5372 26.0407 14.2546 25.893 13.9985C25.7453 13.7424 25.5485 13.518 25.3141 13.3379C25.0796 13.1579 24.8119 13.0258 24.5264 12.9491C24.2408 12.8725 23.943 12.8529 23.6499 12.8914C23.3568 12.9299 23.0741 13.0258 22.818 13.1735L22.4843 13.3663C21.8539 12.8277 21.1295 12.4102 20.3475 12.1347V11.75C20.3475 11.1533 20.1105 10.581 19.6885 10.159C19.2665 9.73705 18.6942 9.5 18.0975 9.5C17.5008 9.5 16.9285 9.73705 16.5065 10.159C16.0846 10.581 15.8475 11.1533 15.8475 11.75V12.1347C15.0655 12.4112 14.3414 12.8297 13.7115 13.3692L13.3763 13.175C12.8591 12.8766 12.2446 12.7959 11.6679 12.9506C11.0912 13.1054 10.5996 13.4828 10.3013 14C10.0029 14.5172 9.92218 15.1317 10.0769 15.7084C10.2316 16.285 10.6091 16.7766 11.1263 17.075L11.4593 17.267C11.3093 18.0827 11.3093 18.9188 11.4593 19.7345L11.1263 19.9265C10.6091 20.2249 10.2316 20.7165 10.0769 21.2931C9.92218 21.8698 10.0029 22.4843 10.3013 23.0015C10.5996 23.5187 11.0912 23.8961 11.6679 24.0509C12.2446 24.2056 12.8591 24.1249 13.3763 23.8265L13.71 23.6337C14.3406 24.1724 15.0652 24.5899 15.8475 24.8652V25.25C15.8475 25.8467 16.0846 26.419 16.5065 26.841C16.9285 27.2629 17.5008 27.5 18.0975 27.5C18.6942 27.5 19.2665 27.2629 19.6885 26.841C20.1105 26.419 20.3475 25.8467 20.3475 25.25V24.8652C21.1295 24.5888 21.8536 24.1703 22.4835 23.6307L22.8188 23.8243C23.3359 24.1226 23.9504 24.2033 24.5271 24.0486C25.1038 23.8939 25.5954 23.5164 25.8938 22.9993C26.1921 22.4821 26.2728 21.8676 26.1181 21.2909C25.9634 20.7142 25.5859 20.2226 25.0688 19.9242L25.068 19.925ZM23.157 17.093C23.411 18.0133 23.411 18.9852 23.157 19.9055C23.1127 20.0657 23.1228 20.2361 23.1858 20.3899C23.2487 20.5437 23.361 20.6722 23.505 20.7552L24.318 21.2248C24.4904 21.3242 24.6162 21.4881 24.6677 21.6803C24.7193 21.8725 24.6923 22.0773 24.5929 22.2496C24.4934 22.422 24.3296 22.5478 24.1374 22.5993C23.9452 22.6509 23.7404 22.624 23.568 22.5245L22.7535 22.0535C22.6094 21.9701 22.4417 21.9369 22.2767 21.9593C22.1117 21.9817 21.9589 22.0584 21.8423 22.1772C21.1747 22.8587 20.3337 23.345 19.41 23.5835C19.2488 23.625 19.1059 23.7189 19.004 23.8504C18.902 23.982 18.8467 24.1438 18.8468 24.3102V25.25C18.8468 25.4489 18.7677 25.6397 18.6271 25.7803C18.4864 25.921 18.2957 26 18.0968 26C17.8978 26 17.7071 25.921 17.5664 25.7803C17.4258 25.6397 17.3468 25.4489 17.3468 25.25V24.311C17.3468 24.1445 17.2915 23.9828 17.1896 23.8512C17.0876 23.7196 16.9447 23.6257 16.7835 23.5842C15.8598 23.3448 15.019 22.8575 14.352 22.175C14.2354 22.0561 14.0826 21.9795 13.9176 21.9571C13.7526 21.9347 13.5848 21.9678 13.4408 22.0513L12.6278 22.5215C12.5424 22.5715 12.448 22.6042 12.35 22.6176C12.2521 22.631 12.1524 22.6249 12.0567 22.5996C11.9611 22.5743 11.8714 22.5303 11.7929 22.4703C11.7143 22.4102 11.6484 22.3352 11.5989 22.2495C11.5495 22.1638 11.5175 22.0692 11.5047 21.9712C11.492 21.8731 11.4987 21.7734 11.5246 21.678C11.5506 21.5825 11.5951 21.4931 11.6557 21.415C11.7163 21.3368 11.7918 21.2714 11.8778 21.2225L12.6908 20.753C12.8347 20.6699 12.947 20.5414 13.01 20.3876C13.073 20.2338 13.0831 20.0634 13.0388 19.9032C12.7848 18.983 12.7848 18.011 13.0388 17.0908C13.0823 16.9309 13.0717 16.7612 13.0086 16.608C12.9455 16.4548 12.8335 16.3268 12.69 16.244L11.877 15.7745C11.7046 15.675 11.5789 15.5112 11.5273 15.319C11.4758 15.1268 11.5027 14.922 11.6021 14.7496C11.7016 14.5773 11.8654 14.4515 12.0576 14.3999C12.2498 14.3484 12.4546 14.3753 12.627 14.4748L13.4415 14.9458C13.5852 15.0294 13.7526 15.0629 13.9174 15.0411C14.0822 15.0192 14.2351 14.9432 14.352 14.825C15.0196 14.1435 15.8606 13.6573 16.7843 13.4187C16.946 13.3772 17.0892 13.2828 17.1912 13.1506C17.2933 13.0184 17.3483 12.856 17.3475 12.689V11.75C17.3475 11.5511 17.4265 11.3603 17.5672 11.2197C17.7078 11.079 17.8986 11 18.0975 11C18.2964 11 18.4872 11.079 18.6278 11.2197C18.7685 11.3603 18.8475 11.5511 18.8475 11.75V12.689C18.8474 12.8555 18.9027 13.0172 19.0047 13.1488C19.1067 13.2804 19.2495 13.3743 19.4108 13.4158C20.3348 13.6551 21.1758 14.1424 21.843 14.825C21.9596 14.9439 22.1125 15.0205 22.2774 15.0429C22.4424 15.0653 22.6102 15.0322 22.7543 14.9488L23.5673 14.4785C23.6526 14.4285 23.747 14.3958 23.845 14.3824C23.943 14.369 24.0426 14.3751 24.1383 14.4004C24.2339 14.4257 24.3236 14.4697 24.4021 14.5297C24.4807 14.5898 24.5466 14.6648 24.5961 14.7505C24.6455 14.8362 24.6776 14.9308 24.6903 15.0288C24.7031 15.1269 24.6963 15.2266 24.6704 15.322C24.6444 15.4175 24.5999 15.5069 24.5393 15.585C24.4787 15.6632 24.4032 15.7286 24.3173 15.7775L23.5043 16.247C23.361 16.33 23.2493 16.4581 23.1865 16.6113C23.1237 16.7644 23.1133 16.9341 23.157 17.0938V17.093Z" fill="#474D66"/>
</svg>
