<svg width="36" height="37" viewBox="0 0 36 37" fill="none" xmlns="http://www.w3.org/2000/svg">
<rect y="0.5" width="36" height="36" rx="18" fill="#F4F6FA"/>
<path d="M17.75 18.5C18.64 18.5 19.51 18.2361 20.2501 17.7416C20.9901 17.2471 21.5669 16.5443 21.9075 15.7221C22.2481 14.8998 22.3372 13.995 22.1635 13.1221C21.9899 12.2492 21.5613 11.4474 20.932 10.818C20.3026 10.1887 19.5008 9.7601 18.6279 9.58647C17.755 9.41283 16.8502 9.50195 16.0279 9.84254C15.2057 10.1831 14.5029 10.7599 14.0084 11.4999C13.5139 12.24 13.25 13.11 13.25 14C13.2512 15.1931 13.7257 16.337 14.5693 17.1807C15.413 18.0243 16.5569 18.4988 17.75 18.5ZM17.75 11C18.3433 11 18.9234 11.1759 19.4167 11.5056C19.9101 11.8352 20.2946 12.3038 20.5216 12.852C20.7487 13.4001 20.8081 14.0033 20.6924 14.5853C20.5766 15.1672 20.2909 15.7018 19.8713 16.1213C19.4518 16.5409 18.9172 16.8266 18.3353 16.9424C17.7533 17.0581 17.1501 16.9987 16.6019 16.7716C16.0538 16.5446 15.5852 16.1601 15.2556 15.6667C14.9259 15.1734 14.75 14.5933 14.75 14C14.75 13.2044 15.0661 12.4413 15.6287 11.8787C16.1913 11.3161 16.9543 11 17.75 11ZM17.75 20C15.9604 20.002 14.2447 20.7138 12.9792 21.9792C11.7138 23.2447 11.002 24.9604 11 26.75C11 26.9489 11.079 27.1397 11.2197 27.2803C11.3603 27.421 11.5511 27.5 11.75 27.5C11.9489 27.5 12.1397 27.421 12.2803 27.2803C12.421 27.1397 12.5 26.9489 12.5 26.75C12.5 25.3576 13.0531 24.0223 14.0377 23.0377C15.0223 22.0531 16.3576 21.5 17.75 21.5C19.1424 21.5 20.4777 22.0531 21.4623 23.0377C22.4469 24.0223 23 25.3576 23 26.75C23 26.9489 23.079 27.1397 23.2197 27.2803C23.3603 27.421 23.5511 27.5 23.75 27.5C23.9489 27.5 24.1397 27.421 24.2803 27.2803C24.421 27.1397 24.5 26.9489 24.5 26.75C24.498 24.9604 23.7862 23.2447 22.5208 21.9792C21.2553 20.7138 19.5396 20.002 17.75 20Z" fill="#474D66"/>
</svg>
