<svg width="28" height="28" viewBox="0 0 28 28" fill="none" xmlns="http://www.w3.org/2000/svg">
<path d="M23.007 25.1239H20.7962V22.9131C20.7962 21.0815 19.3115 19.5968 17.4799 19.5968H10.8474C9.01589 19.5968 7.53115 21.0815 7.53115 22.9131V25.1239H5.32031V22.9131C5.32031 19.8606 7.79488 17.386 10.8474 17.386H17.4799C20.5324 17.386 23.007 19.8606 23.007 22.9131V25.1239ZM14.1637 15.1752C10.5006 15.1752 7.53115 12.2057 7.53115 8.54266C7.53115 4.87963 10.5006 1.91016 14.1637 1.91016C17.8267 1.91016 20.7962 4.87963 20.7962 8.54266C20.7962 12.2057 17.8267 15.1752 14.1637 15.1752ZM14.1637 12.9643C16.6056 12.9643 18.5853 10.9847 18.5853 8.54266C18.5853 6.10064 16.6056 4.12099 14.1637 4.12099C11.7216 4.12099 9.74198 6.10064 9.74198 8.54266C9.74198 10.9847 11.7216 12.9643 14.1637 12.9643Z" fill="#1C1C1C"/>
</svg>
